<svg width="627" height="30" viewBox="0 0 627 30" fill="none" xmlns="http://www.w3.org/2000/svg">
<path d="M6.79614 4.5191C7.39887 4.59444 7.00315 14.5657 7.00315 15.6973" stroke="black" stroke-width="2" stroke-linecap="round"/>
<path d="M1 10.7292C3.6255 10.7292 6.22976 10.5222 8.86617 10.5222C9.72179 10.5222 13.1224 10.7039 13.4203 10.1082" stroke="black" stroke-width="2" stroke-linecap="round"/>
<path d="M14.8693 5.55415C14.3582 5.49025 14.5065 1.47335 15.3983 1.21855C15.8519 1.08895 16.4944 1.3685 16.9509 1.42556C18.6638 1.63967 20.3815 1.83254 22.103 2.03507C23.4372 2.19203 24.7749 2.23135 26.0936 2.49508C26.6794 2.61224 27.4051 2.86309 27.9566 2.86309C28.7476 2.86309 28.5755 2.72404 28.2786 3.3921C28.1084 3.77505 27.9106 4.2827 27.9106 4.72613" stroke="black" stroke-width="2" stroke-linecap="round"/>
<path d="M21.4934 3.07007C21.4934 5.16067 21.3314 7.32447 21.5969 9.39521C21.7878 10.8843 22.0849 12.5176 21.8959 14.0298C21.7883 14.8908 21.4934 15.6342 21.4934 16.5254" stroke="black" stroke-width="2" stroke-linecap="round"/>
<path d="M32.4646 1C32.4646 3.44977 32.2576 5.88492 32.2576 8.31416C32.2576 11.8162 32.2576 15.2967 32.2576 18.8024" stroke="black" stroke-width="2" stroke-linecap="round"/>
<path d="M32.8787 9.28022C33.7963 9.18845 34.2818 8.28982 35.1557 8.08419C35.7081 7.95421 36.4955 7.65496 37.0188 7.62418C37.3424 7.60514 38.2172 7.87458 38.2608 8.24519C38.3379 8.90106 39.0242 9.07168 39.2498 9.57922C39.8709 10.9766 39.7098 12.691 39.7098 14.2023C39.7098 15.4137 39.5772 16.6849 39.8708 17.8594C39.9572 18.2048 40.1238 20.1567 40.1238 19.0094" stroke="black" stroke-width="2" stroke-linecap="round"/>
<path d="M44.0569 12.7993C44.119 13.2962 51.3089 13.3769 52.0036 13.1098C53.7686 12.4309 54.0867 10.7743 53.2111 9.32618C52.5513 8.23499 50.2729 7.62415 49.0365 7.62415C45.6751 7.62415 43.7357 11.629 44.6319 14.6163C45.3419 16.9828 46.1174 18.515 48.611 19.3084C51.0271 20.0772 53.6977 18.7722 54.8211 16.5253" stroke="black" stroke-width="2" stroke-linecap="round"/>
<path d="M80.237 2.47078C78.7629 2.34443 76.7284 1.68834 75.306 2.18072C74.9673 2.29795 74.6938 2.5395 74.3633 2.63394C73.9394 2.75505 73.0008 3.27541 72.7317 3.64915C71.8805 4.83139 71.2633 6.32825 71.2633 7.77345C71.2633 9.63931 71.1482 11.55 71.2723 13.4115C71.3532 14.624 71.4538 15.9732 71.7165 17.1551C71.8286 17.6595 72.0791 18.1075 72.0791 18.6235" stroke="black" stroke-width="2" stroke-linecap="round"/>
<path d="M68 8.01821C70.535 8.01821 73.0065 7.69189 75.5053 7.69189" stroke="black" stroke-width="2" stroke-linecap="round"/>
<path d="M79.4211 8.1814C79.4211 9.00477 79.0445 9.72924 78.8047 10.5019C78.5755 11.2406 78.7685 12.3174 78.7685 13.0852C78.7685 14.3568 78.7011 15.6301 79.1673 16.8288C79.2667 17.0845 79.4211 18.2491 79.4211 17.8078" stroke="black" stroke-width="2" stroke-linecap="round"/>
<path d="M86.1106 8.1814C86.1106 10.2722 86.1106 12.3631 86.1106 14.454C86.1106 15.5538 86.3983 17.3763 85.7843 18.2973" stroke="black" stroke-width="2" stroke-linecap="round"/>
<path d="M87.4159 9.97611C87.8131 9.88785 87.8998 9.40629 88.3133 9.31441C88.7155 9.22502 89.0266 8.99715 89.4554 8.99715C90.3656 8.99715 92.1475 9.02124 92.1475 7.85504" stroke="black" stroke-width="2" stroke-linecap="round"/>
<path d="M99.4897 9.97614C99.8591 9.88378 99.8265 8.83711 99.816 8.54397C99.7992 8.07371 98.99 8.11854 98.6377 8.05449C97.5625 7.859 96.9988 8.38809 96.3081 9.07877C95.027 10.3598 94.1577 11.7957 96.2356 12.9039C96.8918 13.2539 97.674 13.4965 98.257 13.9735C98.631 14.2795 98.8875 14.5789 99.3266 14.7984C100.063 15.1669 100.301 16.0692 100.106 16.8288C99.7913 18.0529 98.7371 19.0456 97.5137 19.1221C95.9903 19.2173 94.1055 19.8982 94.1055 17.8078" stroke="black" stroke-width="2" stroke-linecap="round"/>
<path d="M105.853 6.22345C105.004 8.13472 105.317 10.8467 105.608 12.8223C105.791 14.0606 105.763 15.267 105.889 16.5025C105.964 17.2312 106.179 17.8866 106.179 18.6235C106.179 19.1061 106.084 19.6849 106.188 20.1554C106.23 20.3424 108.124 19.7612 108.373 19.7294C109.181 19.6261 110.748 19.4652 110.748 18.4604" stroke="black" stroke-width="2" stroke-linecap="round"/>
<path d="M103.569 12.7498C104.182 12.7498 104.718 12.4947 105.309 12.4325C106.288 12.3295 107.315 12.4235 108.3 12.4235" stroke="black" stroke-width="2" stroke-linecap="round"/>
<path d="M122.21 6.7768C123.287 6.77816 126.088 4.81824 127.011 4.19721C127.217 4.05852 127.603 3.56434 127.321 4.17678C126.609 5.72197 126.234 7.13227 126.146 8.85438C126.092 9.91488 126.196 10.9717 126.128 12.0392C126.047 13.3042 125.695 14.5436 125.608 15.8065C125.562 16.4701 125.13 18.3867 125.784 18.7562" stroke="black" stroke-width="2" stroke-linecap="round"/>
<path d="M138.726 4.07476C136.185 3.94447 134.315 5.2614 133.238 7.55097C132.524 9.06875 131.664 10.6129 131.452 12.2971C131.181 14.4473 132.134 17.4612 133.86 18.783C134.05 18.9282 134.004 19.2272 134.223 19.328C134.49 19.4511 134.916 19.3999 135.198 19.4144C136.426 19.4773 137.163 19.2326 138.05 18.3262C139.944 16.3887 140.364 13.5428 140.497 10.9546C140.565 9.62442 140.496 8.43444 140.203 7.12752C140.066 6.51461 139.657 5.92333 139.643 5.30171C139.632 4.81555 138.93 4.39042 138.655 4.03483C138.112 3.33055 137.774 2.96889 137.431 3.84498" stroke="black" stroke-width="2" stroke-linecap="round"/>
<path d="M156.472 4.2701C156.559 4.97208 158.763 3.74069 159.082 3.5812C159.672 3.28639 159.409 5.17607 159.409 5.53911C159.409 6.89199 159.245 8.22519 159.245 9.58183C159.245 11.4563 158.919 13.2863 158.919 15.1655C158.919 15.5755 158.68 19.0142 159.01 19.1085C159.387 19.2162 159.73 19.032 160.079 18.9544C160.784 18.7978 161.499 18.7658 162.2 18.61C163.349 18.3546 164.731 17.3098 165.364 16.3257C166.765 14.1456 166.318 11.9206 164.312 10.316C163.534 9.69337 162.712 10.1138 161.938 10.5517C161.664 10.7062 160.781 12.1017 161.04 12.1017" stroke="black" stroke-width="2" stroke-linecap="round"/>
<path d="M169.924 10.1887C170.7 9.83238 171.615 9.66016 172.449 9.51546C173.23 9.38 172.728 9.86452 172.538 10.2682C172.281 10.815 172.018 11.3651 171.963 11.9747C171.864 13.0603 172.028 14.141 172.028 15.2241C172.028 16.422 171.761 17.7135 172.066 18.8896C172.288 19.7476 172.594 20.8766 173.665 20.8766C176.693 20.8766 178.2 17.6251 179.055 15.1914C179.527 13.8486 179.764 12.4132 180.294 11.0957C180.422 10.7804 180.519 10.3997 180.519 10.0531C180.519 8.93706 180.109 12.2494 179.986 13.3586C179.821 14.8424 179.786 16.3714 179.771 17.8657C179.764 18.5945 179.846 19.2385 179.934 19.9462C179.951 20.0753 180.052 20.5458 180.15 20.6242C180.354 20.7876 180.267 21.4696 180.612 20.9795C180.893 20.5801 181.191 20.1954 181.454 19.7826" stroke="black" stroke-width="2" stroke-linecap="round"/>
<path d="M184.315 9.76788C184.315 10.6254 184.763 11.4731 185.115 12.2412C185.386 12.8341 185.651 13.3858 185.811 14.0225C185.961 14.6154 186.068 15.1866 186.335 15.743C186.887 16.8924 187.263 18.0961 187.845 19.2309C187.947 19.4299 188.048 19.7826 188.317 19.7826C188.522 19.7826 188.684 19.5732 188.808 19.4413C189.309 18.9122 189.799 18.3625 190.267 17.8049C191.897 15.8626 193.168 13.8444 194.143 11.5258C194.358 11.0146 194.414 10.7361 194.414 10.1933C194.414 9.63846 194.144 10.8049 194.059 10.9648C193.301 12.3872 192.457 13.8105 191.955 15.3503C191.723 16.0614 191.466 16.7802 191.342 17.5197C191.258 18.0272 191.303 18.6303 191.09 19.1046C190.836 19.6686 190.752 20.3269 190.477 20.8766C190.344 21.1428 190.058 21.2484 189.865 21.4657C189.459 21.9227 189.14 22.3174 188.78 22.8122C188.417 23.3113 188.159 23.9231 187.663 24.327C187.319 24.6069 186.98 24.6065 186.583 24.7057C185.874 24.8831 184.568 25.1212 184.568 24.0746" stroke="black" stroke-width="2" stroke-linecap="round"/>
<path d="M202.577 12.7134C202.915 12.2911 202.572 11.2008 202.409 10.7778C202.22 10.286 202.135 9.76788 201.568 9.76788C200.446 9.76788 199.328 10.0359 198.37 10.5908C197.915 10.8537 197.381 12.1825 197.453 12.6713C197.576 13.4979 198.507 13.8893 199.043 14.3965C199.463 14.794 199.781 15.26 200.216 15.6589C200.589 16.0006 201.003 16.3706 201.32 16.7669C201.64 17.1672 201.784 17.5904 202.222 17.8937C202.932 18.3855 202.385 19.3049 201.899 19.6937C201.416 20.0806 200.625 20.0175 200.048 20.0397C199.38 20.0654 198.722 20.144 198.052 20.1192C197.396 20.0949 197.135 19.5868 197.36 19.0251" stroke="black" stroke-width="2" stroke-linecap="round"/>
<path d="M222.35 9.76376C220.465 9.11936 219.035 8.06701 217.303 9.06947C216.68 9.43027 215.864 10.4654 215.554 11.0856C214.392 13.4101 215.878 16.1436 218.638 16.0056C220.265 15.9243 221.776 15.2114 222.29 13.6691C222.573 12.8188 223.022 11.7364 223.071 10.8452C223.104 10.2535 223.754 9.88392 224.339 9.88392C224.811 9.88392 225.204 9.59827 225.594 9.40326" stroke="black" stroke-width="2" stroke-linecap="round"/>
<path d="M216.823 15.8922C216.051 15.9693 215.501 16.7129 215.501 17.4276C215.501 18.6359 216.902 18.3388 217.784 18.8028C218.349 19.1003 219.081 19.2345 219.707 19.4036C220.316 19.5683 220.964 19.8339 221.602 19.8576C222.524 19.8917 223.191 20.6774 223.191 21.5466C223.191 22.2206 223.07 22.6277 222.717 23.2155C222.322 23.8745 222.364 23.8706 221.622 24.1301C220.797 24.4191 220.029 24.4867 219.166 24.5507C218.239 24.6193 217.253 24.8398 216.355 24.4906C215.782 24.2676 214.828 23.9359 215.027 23.042C215.145 22.5092 216.557 21.8928 216.929 21.6133C217.511 21.1771 218.246 20.7288 218.625 20.0979" stroke="black" stroke-width="2" stroke-linecap="round"/>
<path d="M227.757 14.33C228.958 14.33 230.161 14.4502 231.369 14.4502C232.482 14.4502 233.515 14.3388 234.6 14.2032C235.835 14.0488 235.66 11.6849 235.542 10.8719C235.463 10.3295 235.074 9.24571 234.547 8.99604C233.666 8.57888 232.148 9.15503 231.216 9.16293C230.332 9.17042 229.327 8.90587 228.719 9.6703C228.219 10.2986 227.882 10.9225 227.517 11.6263C226.653 13.2923 226.876 15.7857 228.005 17.2674C229.061 18.654 231.041 19.7019 232.711 19.9778C233.225 20.0626 233.814 20.2516 234.34 20.2181C234.989 20.1766 235.803 19.0012 236.316 18.6292C237.324 17.8976 237.611 17.6211 237.611 16.3728" stroke="black" stroke-width="2" stroke-linecap="round"/>
<path d="M241.336 7C241.336 8.06174 241.216 9.1166 241.216 10.1777C241.216 11.6021 241.498 12.9851 241.583 14.3968C241.666 15.7659 242.137 16.9793 242.444 18.2688C242.71 19.3848 243.861 19.5147 244.881 19.3636C245.414 19.2847 246.122 19.0736 246.61 18.8296C247.169 18.5501 246.068 17.7401 245.902 17.5745" stroke="black" stroke-width="2" stroke-linecap="round"/>
<path d="M239.053 9.64362C239.285 9.81245 239.602 9.76378 239.874 9.76378C240.95 9.76378 242.014 9.83323 243.085 9.93735C243.584 9.98586 244.086 10.1243 244.581 10.1243" stroke="black" stroke-width="2" stroke-linecap="round"/>
<path d="M259.481 11.6124C259.711 11.5102 260.041 10.7856 260.175 10.5309C260.347 10.2049 260.638 10.1799 260.863 9.93009C261.249 9.50053 262.069 9.42123 262.605 9.44943C262.945 9.46733 263.423 9.67243 263.713 9.83663C264.184 10.1029 264.722 10.2114 265.189 10.4708C265.886 10.8582 266.456 11.6845 266.664 12.4535C267.195 14.4191 265.723 16.4125 266.45 18.3683C266.577 18.7081 266.691 19.0719 266.784 19.4231C266.911 19.9024 267.214 19.7836 267.659 19.7836C268.07 19.7836 270.648 19.8397 269.334 19.1828" stroke="black" stroke-width="2" stroke-linecap="round"/>
<path d="M264.768 15.0972C264.768 14.584 263.121 14.8568 262.785 14.8568C261.697 14.8568 261.154 14.9721 260.208 15.3976C259.051 15.9182 259 16.7905 259 17.9544C259 18.8779 261.028 19.5983 261.704 19.7235C263.497 20.0555 265.249 19.2965 265.249 17.2601" stroke="black" stroke-width="2" stroke-linecap="round"/>
<path d="M291.242 5.61432C290.944 4.98172 289.531 3.838 288.716 4.01922C288.211 4.13139 287.786 4.61582 287.429 4.94342C287.128 5.21882 287.046 6.00763 286.806 6.38106C286.281 7.19727 285.627 7.79806 285.259 8.76344C284.823 9.90342 284.341 10.8624 284.341 12.1385C284.341 13.766 284.153 15.4036 284.225 17.0265C284.272 18.0835 284.16 19.6587 284.588 20.6479C284.696 20.8981 284.818 21.2358 284.834 21.5105C284.84 21.6169 284.939 20.9204 284.957 20.7712" stroke="black" stroke-width="2" stroke-linecap="round"/>
<path d="M287.668 9.68079C287.615 10.1624 286.51 9.89647 286.244 9.86563C285.584 9.78887 285.053 9.92724 284.451 9.92724C283.664 9.92724 282.744 9.80231 282 10.0505" stroke="black" stroke-width="2" stroke-linecap="round"/>
<path d="M290.996 10.6666C290.498 10.7909 292.019 10.8316 292.529 10.783C292.933 10.7445 293.04 10.4086 292.844 10.9404C292.265 12.5075 292.83 14.4927 293.159 16.0612C293.472 17.5516 293.583 19.2502 293.583 20.7711C293.583 21.0692 293.53 21.289 293.467 21.5721C293.291 22.3629 293.703 19.9693 293.83 19.1692" stroke="black" stroke-width="2" stroke-linecap="round"/>
<path d="M292.844 13.2543C293.943 12.8254 294.174 12.1537 294.822 11.2211C295.275 10.5702 295.997 10.4975 296.664 10.1737C297.242 9.89277 297.064 10.3211 297.479 10.4133C297.828 10.4909 298.217 10.3212 298.512 10.1737" stroke="black" stroke-width="2" stroke-linecap="round"/>
<path d="M300.607 15.1027C300.639 15.6071 301.541 15.2568 301.853 15.2328C302.826 15.158 303.77 15.3492 304.735 15.3492C305.75 15.3492 307.051 15.6434 307.727 14.7331C308.624 13.5256 308.136 11.9018 306.837 11.1595C305.747 10.5364 304.334 10.646 303.346 11.4059C302.877 11.7667 302.459 12.5497 302.332 13.1174C302.261 13.4389 302.065 14.2248 301.901 14.4866C301.49 15.1438 301.241 16.4491 301.223 17.225C301.199 18.3077 301.9 19.8403 302.901 20.2851C303.847 20.7056 304.877 20.8566 305.906 20.7438C306.821 20.6435 307.777 20.698 308.617 20.2782" stroke="black" stroke-width="2" stroke-linecap="round"/>
<path d="M311.944 15.4724C311.944 16.1047 312.996 15.9316 313.519 15.9927C314.254 16.0787 314.97 16.0886 315.709 16.0886C316.967 16.0886 318.194 16.0113 319.434 15.9653C320.134 15.9394 320.436 15.0589 320.447 14.4866C320.464 13.5515 320.036 13.0214 319.276 12.515C318.269 11.8436 316.504 11.2827 315.333 11.8373C314.038 12.4505 313.176 13.4298 313.176 14.9795C313.176 16.5071 313.808 17.8527 314.347 19.2308C314.491 19.6001 314.539 20.1424 314.717 20.4631C315.019 21.0067 315.706 21.068 316.257 21.1682C317.253 21.3494 321.063 22.0663 321.063 20.4015" stroke="black" stroke-width="2" stroke-linecap="round"/>
<path d="M339.885 6C339.885 8.78652 339.253 11.5553 339.253 14.3542C339.253 16.0853 339 17.7937 339 19.5212C339 20.2138 339 20.9065 339 21.5992C339 22.4824 339.545 21.8406 339.885 21.4166" stroke="black" stroke-width="2" stroke-linecap="round"/>
<path d="M347.087 12.3183C347.087 13.1213 346.754 14.0271 346.582 14.8175C346.264 16.2743 346.116 17.8109 345.978 19.2965C345.856 20.6086 345.813 22.1326 345.978 23.4385C346.031 23.8578 346.208 24.2188 346.322 24.6179C346.347 24.7058 346.369 24.4411 346.385 24.3511C346.554 23.418 346.612 22.4846 346.708 21.543" stroke="black" stroke-width="2" stroke-linecap="round"/>
<path d="M346.329 7.26367C345.947 7.40692 345.966 8.69673 346.329 8.87835C346.865 9.1462 347.251 8.12574 347.34 7.76914" stroke="black" stroke-width="2" stroke-linecap="round"/>
<path d="M351.51 12.8238C352.036 12.8238 352.664 14.1363 352.9 14.5438C353.597 15.7438 354.071 16.9803 354.55 18.2575C355.027 19.5301 355.583 20.8571 355.94 22.1047C355.963 22.1847 356.47 22.856 356.565 22.7505C357.161 22.0876 357.388 20.797 357.758 19.9986C358.168 19.1131 358.592 18.2341 358.994 17.3449C359.483 16.2613 359.775 15.1095 360.286 14.0313C360.469 13.6442 360.555 12.4447 361.114 12.4447" stroke="black" stroke-width="2" stroke-linecap="round"/>
<path d="M363.894 18.6366C363.904 18.7131 368.04 18.763 368.436 18.763C369.242 18.763 371.071 18.9968 371.476 18.1873C372.095 16.9498 371.803 15.2102 371.027 14.0804C370.249 12.9495 369.297 12.6537 367.91 12.8519C364.306 13.3667 363.03 17.5654 363.613 20.6585C363.973 22.5661 366.039 23.575 367.804 23.9931C369.235 24.332 370.632 23.6798 371.476 22.554" stroke="black" stroke-width="2" stroke-linecap="round"/>
<path d="M394.453 16.0779C394.418 15.3751 394.874 12.8073 393.741 12.8073C393.254 12.8073 392.803 12.9374 392.34 13.0799C391.471 13.3474 390.716 13.5292 389.887 13.8975C388.297 14.6042 387.484 16.3543 387.23 18.069C386.903 20.2758 386.44 24.8132 389.683 24.9356C390.951 24.9835 392.525 25.0775 393.635 24.2845C394.281 23.8234 394.8 23.2608 395.407 22.7552" stroke="black" stroke-width="2" stroke-linecap="round"/>
<path d="M402.357 13.4887C401.484 13.568 400.583 14.6319 400.252 15.3889C399.838 16.3359 399.104 17.3644 398.957 18.3945C398.884 18.9089 398.638 19.3847 398.511 19.8935C398.325 20.6359 398.366 21.5128 398.412 22.2707C398.52 24.0456 399.957 25.3178 401.743 25.4731C402.301 25.5217 402.878 25.4807 403.439 25.4807C404.054 25.4807 404.243 25.2052 404.673 24.7993C405.112 24.3846 405.636 23.9969 406.021 23.5047C406.611 22.7501 407.002 21.2323 407.096 20.3023C407.291 18.3678 407.362 15.4208 405.869 13.9278C405.583 13.6419 404.705 13.2902 404.31 13.148C403.713 12.9333 403.302 12.5554 403.038 13.2161" stroke="black" stroke-width="2" stroke-linecap="round"/>
<path d="M410.533 14.0338C410.978 14.2563 411.385 14.5292 411.896 14.3669C412.407 14.204 412.538 14.0359 412.653 14.6243C412.983 16.3245 412.986 18.026 412.986 19.7496C412.986 20.8186 413.093 21.8947 413.122 22.9672C413.129 23.2317 413.248 23.4773 413.364 23.7091C413.385 23.7505 413.618 22.5936 413.667 22.3464" stroke="black" stroke-width="2" stroke-linecap="round"/>
<path d="M413.258 16.0778C413.711 14.8208 415.04 13.4854 416.514 13.958C416.962 14.1018 418.385 14.2157 418.679 14.7151C419.143 15.5046 419.788 16.0799 420.148 16.9636C420.457 17.724 420.881 18.4039 420.746 19.2803C420.693 19.6223 420.386 19.8982 420.284 20.2342C420.182 20.5685 420.208 20.9188 420.208 21.2638C420.208 22.0386 420.617 22.6994 420.821 23.4366C420.897 23.7103 420.862 23.9874 420.958 24.2542C421.196 24.9211 421.371 23.6585 421.435 23.4366" stroke="black" stroke-width="2" stroke-linecap="round"/>
<path d="M431.383 15.8053C431.383 14.0749 430.678 12.8065 428.725 12.9512C427.504 13.0416 426.477 13.3756 426.477 14.7833C426.477 15.2479 426.749 15.6315 426.749 16.0779C426.749 16.5422 426.749 17.0066 426.749 17.4709C426.749 19.067 428.512 18.9656 429.611 19.515C431.409 20.4142 433.567 22.8682 430.981 24.3224C429.434 25.1927 427.772 24.9817 426.068 24.9356C425.185 24.9118 424.754 23.7728 425.25 23.0278" stroke="black" stroke-width="2" stroke-linecap="round"/>
<path d="M435.471 14.7151C435.771 14.7151 436.066 14.728 436.357 14.6394C436.475 14.6035 436.951 14.3254 437.076 14.3669C437.276 14.4336 437.106 17.0935 437.106 17.3649C437.106 18.4097 437.106 19.4544 437.106 20.4992C437.106 21.1748 436.756 21.98 437.076 22.619C437.364 23.1956 437.586 23.7937 438.06 24.2543C438.681 24.8583 440.352 25.0237 441.119 24.6555C442.126 24.1719 442.889 22.2198 442.966 21.1503C443.027 20.2919 443.012 19.3188 443.17 18.4626C443.281 17.8665 443.192 16.9771 443.443 16.4261C443.596 16.0899 443.742 15.4936 443.783 15.124C443.797 15.0038 443.927 14.8929 443.988 14.7833C444.155 14.4827 444.069 15.3436 444.086 15.4722C444.217 16.4567 444.601 17.2939 444.601 18.3112C444.601 20.2381 444.139 22.0458 444.192 23.9817C444.209 24.5856 444.64 25.4625 444.881 26.0258C445.244 26.8713 446.068 25.6813 446.236 25.3444" stroke="black" stroke-width="2" stroke-linecap="round"/>
<path d="M448.281 9.673C448.859 9.673 449.348 9.60046 449.916 9.47616C450.291 9.39401 451.387 8.91132 451.748 9.01435C451.878 9.05156 452.328 10.9051 452.369 11.119C452.633 12.5053 452.469 13.7714 452.164 15.1239C451.671 17.3178 451.661 19.4807 451.385 21.6953C451.242 22.8349 451.02 24.6153 451.687 25.6169" stroke="black" stroke-width="2" stroke-linecap="round"/>
<path d="M458.228 11.8534C458.406 11.8756 458.228 17.037 458.228 17.7131C458.228 19.0328 458.572 20.3591 458.637 21.665C458.664 22.1953 459.046 22.6349 459.046 23.1641C459.046 23.5053 459.363 24.2093 459.591 24.4662C460.007 24.9344 460.55 24.9356 461.151 24.9356C462.042 24.9356 462.317 24.5255 462.317 23.7091" stroke="black" stroke-width="2" stroke-linecap="round"/>
<path d="M455.503 14.8514C455.503 15.6779 458.045 15.2602 458.614 15.2602C459.538 15.2602 460.44 15.3965 461.363 15.3965" stroke="black" stroke-width="2" stroke-linecap="round"/>
<path d="M466.132 17.0318C466.132 15.0274 467.429 14.17 469.198 14.17C469.542 14.17 469.888 14.437 470.145 14.647C470.456 14.9014 471.155 15.4597 471.303 15.8053C471.654 16.6251 472.035 17.3667 472.136 18.2734C472.237 19.1857 472.48 20.1753 472.643 21.0897C472.833 22.1575 472.607 23.3416 472.84 24.3905C472.954 24.904 472.745 25.8895 473.491 25.8895C474.124 25.8895 474.621 25.6082 474.172 24.9356" stroke="black" stroke-width="2" stroke-linecap="round"/>
<path d="M471.992 20.7111C471.992 20.2279 471.028 20.0408 470.629 20.0298C469.766 20.0058 468.867 20.3857 468.07 20.6808C466.851 21.1326 466.269 21.629 466.269 22.9218C466.269 26.1239 472.537 26.372 472.537 23.164" stroke="black" stroke-width="2" stroke-linecap="round"/>
<path d="M479.553 12.1383C479.493 14.9231 478.994 17.6196 478.994 20.3833C478.994 21.743 479.106 22.7688 479.623 24.0322C480.011 24.9796 480.184 26.2526 481.448 26.2526C481.885 26.2526 482.692 26.5873 483.047 26.2526C483.59 25.7397 483.812 25.4604 484.025 24.7154" stroke="black" stroke-width="2" stroke-linecap="round"/>
<path d="M476.339 15.6319C477.874 15.5138 479.418 15.3524 480.951 15.3524C481.817 15.3524 482.616 15.6319 483.466 15.6319" stroke="black" stroke-width="2" stroke-linecap="round"/>
<path d="M488.357 15.2126C488.878 15.2777 488.644 17.9226 488.637 18.4268C488.616 19.8742 488.357 21.2977 488.357 22.7589C488.357 23.5491 488.571 24.3699 488.745 25.1345C488.81 25.4156 488.835 25.7061 488.947 25.973C489.203 26.5814 489.161 25.73 489.196 25.414" stroke="black" stroke-width="2" stroke-linecap="round"/>
<path d="M488.776 10.8806C488.73 10.5572 487.952 12.2016 488.637 11.688C488.978 11.4319 488.916 11.1191 488.916 10.7408" stroke="black" stroke-width="2" stroke-linecap="round"/>
<path d="M499.118 15.9114C498.089 15.5948 497.097 15.7165 496.261 16.4005C495.702 16.8577 495.389 18.2543 495.135 18.9159C494.774 19.8546 494.856 20.9539 494.615 21.9204C494.384 22.8439 494.219 24.0686 494.785 24.8861C495.293 25.6186 496.53 25.5017 497.309 25.6314C498.154 25.7723 499.379 26.066 500.228 25.7479C502.069 25.0576 502.993 24.1365 503.364 22.0757C503.665 20.4051 503.291 18.7922 502.052 17.5883C501.551 17.1014 501.016 16.9516 500.375 16.7499C499.984 16.6266 499.118 16.5708 499.118 16.0511" stroke="black" stroke-width="2" stroke-linecap="round"/>
<path d="M506.804 16.4704C507.572 16.4704 508.307 15.9809 509.04 15.7716C509.604 15.6103 509.159 16.322 509.071 16.5791C508.86 17.191 508.9 17.8216 508.9 18.4579C508.9 20.0514 509.04 21.6388 509.04 23.2402C509.04 23.9079 509.04 24.5756 509.04 25.2432C509.04 26.1276 509.042 26.0986 509.179 25.2743" stroke="black" stroke-width="2" stroke-linecap="round"/>
<path d="M510.018 18.1473C511.206 17.2386 511.888 15.7711 513.511 16.222C514.829 16.5879 515.49 17.2861 515.747 18.5743C516.116 20.4169 516.354 22.215 516.927 24.0166C517.128 24.6489 517.145 25.2488 517.145 25.9032C517.145 26.5178 517 26.8115 517.704 26.8115" stroke="black" stroke-width="2" stroke-linecap="round"/>
<path d="M532 16.0315C532.1 16.8316 532.79 18.012 533.047 18.721C533.394 19.6773 533.765 20.6346 533.986 21.6271C534.133 22.2924 534.261 22.963 534.401 23.6307C534.572 24.4486 534.724 25.3161 535.005 26.1036C535.217 26.697 535.514 27.8799 536.061 26.6451C536.894 24.7661 537.7 22.7077 538.3 20.7426C538.632 19.652 539.123 18.6139 539.383 17.5026C539.52 16.9158 540.078 15.3409 540.285 16.943C540.688 20.0687 541.606 22.9689 542.559 25.9411C542.702 26.3857 542.631 27.4603 543.011 27.7642C543.282 27.9814 545.203 23.1184 545.402 22.6379C546.102 20.9527 547.758 18.8537 547.758 17.0062" stroke="black" stroke-width="2" stroke-linecap="round"/>
<path d="M551.819 16.6813C551.819 19.0747 551.516 21.4891 551.783 23.8654C551.89 24.8125 551.933 26.0843 552.234 26.9881C552.613 28.123 552.639 27.6848 552.794 26.7534" stroke="black" stroke-width="2" stroke-linecap="round"/>
<path d="M552.307 11.1579C552.307 10.9857 551.726 12.5897 551.657 12.5027C551.468 12.267 551.391 11.778 551.657 11.6453" stroke="black" stroke-width="2" stroke-linecap="round"/>
<path d="M559.617 13.4323C559.617 14.2814 559.029 15.1457 558.976 16.0405C558.888 17.5481 558.967 19.0787 558.967 20.5892C558.967 22.0886 559.713 23.4067 559.779 24.8401C559.831 25.9565 560.198 26.7534 561.341 26.7534C561.757 26.7534 563.379 26.9253 563.642 26.5187C564.2 25.6562 563.61 24.5836 563.191 23.8292" stroke="black" stroke-width="2" stroke-linecap="round"/>
<path d="M555.718 17.3311C554.117 17.3311 558.909 17.0062 560.51 17.0062C561.264 17.0062 562.561 17.2634 563.191 16.8438" stroke="black" stroke-width="2" stroke-linecap="round"/>
<path d="M564.166 11.8077C564.935 11.8077 565.792 11.8915 566.512 11.564C567.002 11.3412 567.463 11.1201 567.983 11.0045C568.611 10.8651 568.389 14.0248 568.389 14.4431C568.389 15.8654 568.695 17.2438 569.003 18.6307C569.402 20.4262 569.039 22.7085 569.039 24.5603C569.039 25.4044 568.905 26.218 568.877 27.0422C568.835 28.2509 568.877 27.9544 568.877 26.9158" stroke="black" stroke-width="2" stroke-linecap="round"/>
<path d="M569.527 18.4683C569.263 18.5013 569.977 18.2711 570.339 18.0171C570.81 17.6863 571.559 17.4936 572.135 17.4936C572.888 17.4936 575.212 18.0723 575.212 19.0369C575.212 20.5388 575.05 22.0075 575.05 23.5044C575.05 24.4399 575.028 25.3365 575.212 26.257C575.264 26.5132 575.679 27.9329 575.862 27.5657" stroke="black" stroke-width="2" stroke-linecap="round"/>
<path d="M591.164 17.7364C591.406 15.802 591.164 21.6353 591.164 23.5847C591.164 24.7282 591.002 25.8482 591.002 26.9962C591.002 27.3278 590.975 27.6653 591.128 27.9709C591.219 28.1532 591.727 26.6081 591.814 26.3464" stroke="black" stroke-width="2" stroke-linecap="round"/>
<path d="M593.763 17.5739C593.345 18.4365 593.617 18.4048 594.287 17.8988C594.734 17.5608 595.156 17.3864 595.677 17.2129C596.366 16.983 596.569 17.1662 597.003 17.7454C598.078 19.1778 597.987 20.9473 597.987 22.6822C597.987 24.4189 598.15 29.6264 598.15 27.8897C598.15 25.5564 598.575 23.4745 599.612 21.4006C600.029 20.5655 600.624 17.8988 601.814 17.8988C603.391 17.8988 604.374 18.6169 604.973 20.0468C605.668 21.7088 605.651 23.1892 605.794 24.9746C605.875 25.9812 606.139 26.9872 606.263 27.9799C606.309 28.3471 606.272 28.7379 606.272 29.1081C606.272 29.613 606.272 28.1743 606.272 27.9709" stroke="black" stroke-width="2" stroke-linecap="round"/>
<path d="M610.821 23.0974C611.578 23.0974 612.274 22.7725 613.041 22.7725C614.034 22.7725 615.027 22.7725 616.02 22.7725C617.217 22.7725 618.292 22.7423 619.034 21.7978C619.536 21.1584 619.922 20.6128 619.738 19.6949C619.614 19.0769 618.874 18.5515 618.33 18.3501C617.489 18.0386 616.705 17.574 615.776 17.574C614.782 17.574 614.238 18.0945 613.42 18.5487C612.609 18.9992 611.277 20.818 611.137 21.7978C611.099 22.0608 610.836 22.1854 610.821 22.4476C610.801 22.8002 610.821 23.1596 610.821 23.5125C610.821 24.375 610.881 25.0257 611.39 25.7598C612.126 26.8235 613.875 27.971 615.207 27.971C615.561 27.971 615.799 27.8299 616.101 27.6461C616.441 27.4391 616.956 27.4499 617.238 27.2309C617.696 26.875 617.923 26.8093 618.131 26.184" stroke="black" stroke-width="2" stroke-linecap="round"/>
<path d="M624.954 14C624.954 15.7578 624.458 17.6674 624.991 19.3971C625.212 20.1172 624.95 20.8888 625.153 21.5992C625.24 21.9046 625.313 23.5509 625.442 23.4223" stroke="black" stroke-width="2" stroke-linecap="round"/>
<path d="M624.63 28.7832C624.658 28.9544 625.257 27.425 625.279 28.0071C625.314 28.912 624.781 29.1911 624.63 28.1334" stroke="black" stroke-width="2" stroke-linecap="round"/>
</svg>
