<svg width="444" height="61" viewBox="0 0 444 61" fill="none" xmlns="http://www.w3.org/2000/svg">
<path d="M6.79614 4.5191C7.39887 4.59444 7.00315 14.5657 7.00315 15.6973" stroke="black" stroke-width="2" stroke-linecap="round"/>
<path d="M1 10.7292C3.6255 10.7292 6.22976 10.5222 8.86617 10.5222C9.72179 10.5222 13.1224 10.7039 13.4203 10.1082" stroke="black" stroke-width="2" stroke-linecap="round"/>
<path d="M14.8693 5.55415C14.3582 5.49025 14.5065 1.47335 15.3983 1.21855C15.8519 1.08895 16.4944 1.3685 16.9509 1.42556C18.6638 1.63967 20.3815 1.83254 22.103 2.03507C23.4372 2.19203 24.7749 2.23135 26.0936 2.49508C26.6794 2.61224 27.4051 2.86309 27.9566 2.86309C28.7476 2.86309 28.5755 2.72404 28.2786 3.3921C28.1084 3.77505 27.9106 4.2827 27.9106 4.72613" stroke="black" stroke-width="2" stroke-linecap="round"/>
<path d="M21.4934 3.07007C21.4934 5.16067 21.3314 7.32447 21.5969 9.39521C21.7878 10.8843 22.0849 12.5176 21.8959 14.0298C21.7883 14.8908 21.4934 15.6342 21.4934 16.5254" stroke="black" stroke-width="2" stroke-linecap="round"/>
<path d="M32.4646 1C32.4646 3.44977 32.2576 5.88492 32.2576 8.31416C32.2576 11.8162 32.2576 15.2967 32.2576 18.8024" stroke="black" stroke-width="2" stroke-linecap="round"/>
<path d="M32.8787 9.28022C33.7963 9.18845 34.2818 8.28982 35.1557 8.08419C35.7081 7.95421 36.4955 7.65496 37.0188 7.62418C37.3424 7.60514 38.2172 7.87458 38.2608 8.24519C38.3379 8.90106 39.0242 9.07168 39.2498 9.57922C39.8709 10.9766 39.7098 12.691 39.7098 14.2023C39.7098 15.4137 39.5772 16.6849 39.8708 17.8594C39.9572 18.2048 40.1238 20.1567 40.1238 19.0094" stroke="black" stroke-width="2" stroke-linecap="round"/>
<path d="M44.0569 12.7993C44.119 13.2962 51.3089 13.3769 52.0036 13.1098C53.7686 12.4309 54.0867 10.7743 53.2111 9.32618C52.5513 8.23499 50.2729 7.62415 49.0365 7.62415C45.6751 7.62415 43.7357 11.629 44.6319 14.6163C45.3419 16.9828 46.1174 18.515 48.611 19.3084C51.0271 20.0772 53.6977 18.7722 54.8211 16.5253" stroke="black" stroke-width="2" stroke-linecap="round"/>
<path d="M80.237 2.47078C78.7629 2.34443 76.7284 1.68834 75.306 2.18072C74.9673 2.29795 74.6938 2.5395 74.3633 2.63394C73.9394 2.75505 73.0008 3.27541 72.7317 3.64915C71.8805 4.83139 71.2633 6.32825 71.2633 7.77345C71.2633 9.63931 71.1482 11.55 71.2723 13.4115C71.3532 14.624 71.4538 15.9732 71.7165 17.1551C71.8286 17.6595 72.0791 18.1075 72.0791 18.6235" stroke="black" stroke-width="2" stroke-linecap="round"/>
<path d="M68 8.01821C70.535 8.01821 73.0065 7.69189 75.5053 7.69189" stroke="black" stroke-width="2" stroke-linecap="round"/>
<path d="M79.4211 8.1814C79.4211 9.00477 79.0445 9.72924 78.8047 10.5019C78.5755 11.2406 78.7685 12.3174 78.7685 13.0852C78.7685 14.3568 78.7011 15.6301 79.1673 16.8288C79.2667 17.0845 79.4211 18.2491 79.4211 17.8078" stroke="black" stroke-width="2" stroke-linecap="round"/>
<path d="M86.1106 8.1814C86.1106 10.2722 86.1106 12.3631 86.1106 14.454C86.1106 15.5538 86.3983 17.3763 85.7843 18.2973" stroke="black" stroke-width="2" stroke-linecap="round"/>
<path d="M87.4159 9.97611C87.8131 9.88785 87.8998 9.40629 88.3133 9.31441C88.7155 9.22502 89.0266 8.99715 89.4554 8.99715C90.3656 8.99715 92.1475 9.02124 92.1475 7.85504" stroke="black" stroke-width="2" stroke-linecap="round"/>
<path d="M99.4897 9.97614C99.8591 9.88378 99.8265 8.83711 99.816 8.54397C99.7992 8.07371 98.99 8.11854 98.6377 8.05449C97.5625 7.859 96.9988 8.38809 96.3081 9.07877C95.027 10.3598 94.1577 11.7957 96.2356 12.9039C96.8918 13.2539 97.674 13.4965 98.257 13.9735C98.631 14.2795 98.8875 14.5789 99.3266 14.7984C100.063 15.1669 100.301 16.0692 100.106 16.8288C99.7913 18.0529 98.7371 19.0456 97.5137 19.1221C95.9903 19.2173 94.1055 19.8982 94.1055 17.8078" stroke="black" stroke-width="2" stroke-linecap="round"/>
<path d="M105.853 6.22345C105.004 8.13472 105.317 10.8467 105.608 12.8223C105.791 14.0606 105.763 15.267 105.889 16.5025C105.964 17.2312 106.179 17.8866 106.179 18.6235C106.179 19.1061 106.084 19.6849 106.188 20.1554C106.23 20.3424 108.124 19.7612 108.373 19.7294C109.181 19.6261 110.748 19.4652 110.748 18.4604" stroke="black" stroke-width="2" stroke-linecap="round"/>
<path d="M103.569 12.7498C104.182 12.7498 104.718 12.4947 105.309 12.4325C106.288 12.3295 107.315 12.4235 108.3 12.4235" stroke="black" stroke-width="2" stroke-linecap="round"/>
<path d="M122.21 6.7768C123.287 6.77816 126.088 4.81824 127.011 4.19721C127.217 4.05852 127.603 3.56434 127.321 4.17678C126.609 5.72197 126.234 7.13227 126.146 8.85438C126.092 9.91488 126.196 10.9717 126.128 12.0392C126.047 13.3042 125.695 14.5436 125.608 15.8065C125.562 16.4701 125.13 18.3867 125.784 18.7562" stroke="black" stroke-width="2" stroke-linecap="round"/>
<path d="M138.726 4.07476C136.185 3.94447 134.315 5.2614 133.238 7.55097C132.524 9.06875 131.664 10.6129 131.452 12.2971C131.181 14.4473 132.134 17.4612 133.86 18.783C134.05 18.9282 134.004 19.2272 134.223 19.328C134.49 19.4511 134.916 19.3999 135.198 19.4144C136.426 19.4773 137.163 19.2326 138.05 18.3262C139.944 16.3887 140.364 13.5428 140.497 10.9546C140.565 9.62442 140.496 8.43444 140.203 7.12752C140.066 6.51461 139.657 5.92333 139.643 5.30171C139.632 4.81555 138.93 4.39042 138.655 4.03483C138.112 3.33055 137.774 2.96889 137.431 3.84498" stroke="black" stroke-width="2" stroke-linecap="round"/>
<path d="M156.472 4.2701C156.559 4.97208 158.763 3.74069 159.082 3.5812C159.672 3.28639 159.409 5.17607 159.409 5.53911C159.409 6.89199 159.245 8.22519 159.245 9.58183C159.245 11.4563 158.919 13.2863 158.919 15.1655C158.919 15.5755 158.68 19.0142 159.01 19.1085C159.387 19.2162 159.73 19.032 160.079 18.9544C160.784 18.7978 161.499 18.7658 162.2 18.61C163.349 18.3546 164.731 17.3098 165.364 16.3257C166.765 14.1456 166.318 11.9206 164.312 10.316C163.534 9.69337 162.712 10.1138 161.938 10.5517C161.664 10.7062 160.781 12.1017 161.04 12.1017" stroke="black" stroke-width="2" stroke-linecap="round"/>
<path d="M169.924 10.1887C170.7 9.83238 171.615 9.66016 172.449 9.51546C173.23 9.38 172.728 9.86452 172.538 10.2682C172.281 10.815 172.018 11.3651 171.963 11.9747C171.864 13.0603 172.028 14.141 172.028 15.2241C172.028 16.422 171.761 17.7135 172.066 18.8896C172.288 19.7476 172.594 20.8766 173.665 20.8766C176.693 20.8766 178.2 17.6251 179.055 15.1914C179.527 13.8486 179.764 12.4132 180.294 11.0957C180.422 10.7804 180.519 10.3997 180.519 10.0531C180.519 8.93706 180.109 12.2494 179.986 13.3586C179.821 14.8424 179.786 16.3714 179.771 17.8657C179.764 18.5945 179.846 19.2385 179.934 19.9462C179.951 20.0753 180.052 20.5458 180.15 20.6242C180.354 20.7876 180.267 21.4696 180.612 20.9795C180.893 20.5801 181.191 20.1954 181.454 19.7826" stroke="black" stroke-width="2" stroke-linecap="round"/>
<path d="M184.315 9.76788C184.315 10.6254 184.763 11.4731 185.115 12.2412C185.386 12.8341 185.651 13.3858 185.811 14.0225C185.961 14.6154 186.068 15.1866 186.335 15.743C186.887 16.8924 187.263 18.0961 187.845 19.2309C187.947 19.4299 188.048 19.7826 188.317 19.7826C188.522 19.7826 188.684 19.5732 188.808 19.4413C189.309 18.9122 189.799 18.3625 190.267 17.8049C191.897 15.8626 193.168 13.8444 194.143 11.5258C194.358 11.0146 194.414 10.7361 194.414 10.1933C194.414 9.63846 194.144 10.8049 194.059 10.9648C193.301 12.3872 192.457 13.8105 191.955 15.3503C191.723 16.0614 191.466 16.7802 191.342 17.5197C191.258 18.0272 191.303 18.6303 191.09 19.1046C190.836 19.6686 190.752 20.3269 190.477 20.8766C190.344 21.1428 190.058 21.2484 189.865 21.4657C189.459 21.9227 189.14 22.3174 188.78 22.8122C188.417 23.3113 188.159 23.9231 187.663 24.327C187.319 24.6069 186.98 24.6065 186.583 24.7057C185.874 24.8831 184.568 25.1212 184.568 24.0746" stroke="black" stroke-width="2" stroke-linecap="round"/>
<path d="M202.577 12.7134C202.915 12.2911 202.572 11.2008 202.409 10.7778C202.22 10.286 202.135 9.76788 201.568 9.76788C200.446 9.76788 199.328 10.0359 198.37 10.5908C197.915 10.8537 197.381 12.1825 197.453 12.6713C197.576 13.4979 198.507 13.8893 199.043 14.3965C199.463 14.794 199.781 15.26 200.216 15.6589C200.589 16.0006 201.003 16.3706 201.32 16.7669C201.64 17.1672 201.784 17.5904 202.222 17.8937C202.932 18.3855 202.385 19.3049 201.899 19.6937C201.416 20.0806 200.625 20.0175 200.048 20.0397C199.38 20.0654 198.722 20.144 198.052 20.1192C197.396 20.0949 197.135 19.5868 197.36 19.0251" stroke="black" stroke-width="2" stroke-linecap="round"/>
<path d="M222.35 9.76376C220.465 9.11936 219.035 8.06701 217.303 9.06947C216.68 9.43027 215.864 10.4654 215.554 11.0856C214.392 13.4101 215.878 16.1436 218.638 16.0056C220.265 15.9243 221.776 15.2114 222.29 13.6691C222.573 12.8188 223.022 11.7364 223.071 10.8452C223.104 10.2535 223.754 9.88392 224.339 9.88392C224.811 9.88392 225.204 9.59827 225.594 9.40326" stroke="black" stroke-width="2" stroke-linecap="round"/>
<path d="M216.823 15.8922C216.051 15.9693 215.501 16.7129 215.501 17.4276C215.501 18.6359 216.902 18.3388 217.784 18.8028C218.349 19.1003 219.081 19.2345 219.707 19.4036C220.316 19.5683 220.964 19.8339 221.602 19.8576C222.524 19.8917 223.191 20.6774 223.191 21.5466C223.191 22.2206 223.07 22.6277 222.717 23.2155C222.322 23.8745 222.364 23.8706 221.622 24.1301C220.797 24.4191 220.029 24.4867 219.166 24.5507C218.239 24.6193 217.253 24.8398 216.355 24.4906C215.782 24.2676 214.828 23.9359 215.027 23.042C215.145 22.5092 216.557 21.8928 216.929 21.6133C217.511 21.1771 218.246 20.7288 218.625 20.0979" stroke="black" stroke-width="2" stroke-linecap="round"/>
<path d="M227.757 14.33C228.958 14.33 230.161 14.4502 231.369 14.4502C232.482 14.4502 233.515 14.3388 234.6 14.2032C235.835 14.0488 235.66 11.6849 235.542 10.8719C235.463 10.3295 235.074 9.24571 234.547 8.99604C233.666 8.57888 232.148 9.15503 231.216 9.16293C230.332 9.17042 229.327 8.90587 228.719 9.6703C228.219 10.2986 227.882 10.9225 227.517 11.6263C226.653 13.2923 226.876 15.7857 228.005 17.2674C229.061 18.654 231.041 19.7019 232.711 19.9778C233.225 20.0626 233.814 20.2516 234.34 20.2181C234.989 20.1766 235.803 19.0012 236.316 18.6292C237.324 17.8976 237.611 17.6211 237.611 16.3728" stroke="black" stroke-width="2" stroke-linecap="round"/>
<path d="M241.336 7C241.336 8.06174 241.216 9.1166 241.216 10.1777C241.216 11.6021 241.498 12.9851 241.583 14.3968C241.666 15.7659 242.137 16.9793 242.444 18.2688C242.71 19.3848 243.861 19.5147 244.881 19.3636C245.414 19.2847 246.122 19.0736 246.61 18.8296C247.169 18.5501 246.068 17.7401 245.902 17.5745" stroke="black" stroke-width="2" stroke-linecap="round"/>
<path d="M239.053 9.64362C239.285 9.81245 239.602 9.76378 239.874 9.76378C240.95 9.76378 242.014 9.83323 243.085 9.93735C243.584 9.98586 244.086 10.1243 244.581 10.1243" stroke="black" stroke-width="2" stroke-linecap="round"/>
<path d="M259.481 11.6124C259.711 11.5102 260.041 10.7856 260.175 10.5309C260.347 10.2049 260.638 10.1799 260.863 9.93009C261.249 9.50053 262.069 9.42123 262.605 9.44943C262.945 9.46733 263.423 9.67243 263.713 9.83663C264.184 10.1029 264.722 10.2114 265.189 10.4708C265.886 10.8582 266.456 11.6845 266.664 12.4535C267.195 14.4191 265.723 16.4125 266.45 18.3683C266.577 18.7081 266.691 19.0719 266.784 19.4231C266.911 19.9024 267.214 19.7836 267.659 19.7836C268.07 19.7836 270.648 19.8397 269.334 19.1828" stroke="black" stroke-width="2" stroke-linecap="round"/>
<path d="M264.768 15.0972C264.768 14.584 263.121 14.8568 262.785 14.8568C261.697 14.8568 261.154 14.9721 260.208 15.3976C259.051 15.9182 259 16.7905 259 17.9544C259 18.8779 261.028 19.5983 261.704 19.7235C263.497 20.0555 265.249 19.2965 265.249 17.2601" stroke="black" stroke-width="2" stroke-linecap="round"/>
<path d="M291.242 5.61432C290.944 4.98172 289.531 3.838 288.716 4.01922C288.211 4.13139 287.786 4.61582 287.429 4.94342C287.128 5.21882 287.046 6.00763 286.806 6.38106C286.281 7.19727 285.627 7.79806 285.259 8.76344C284.823 9.90342 284.341 10.8624 284.341 12.1385C284.341 13.766 284.153 15.4036 284.225 17.0265C284.272 18.0835 284.16 19.6587 284.588 20.6479C284.696 20.8981 284.818 21.2358 284.834 21.5105C284.84 21.6169 284.939 20.9204 284.957 20.7712" stroke="black" stroke-width="2" stroke-linecap="round"/>
<path d="M287.668 9.68079C287.615 10.1624 286.51 9.89647 286.244 9.86563C285.584 9.78887 285.053 9.92724 284.451 9.92724C283.664 9.92724 282.744 9.80231 282 10.0505" stroke="black" stroke-width="2" stroke-linecap="round"/>
<path d="M290.996 10.6666C290.498 10.7909 292.019 10.8316 292.529 10.783C292.933 10.7445 293.04 10.4086 292.844 10.9404C292.265 12.5075 292.83 14.4927 293.159 16.0612C293.472 17.5516 293.583 19.2502 293.583 20.7711C293.583 21.0692 293.53 21.289 293.467 21.5721C293.291 22.3629 293.703 19.9693 293.83 19.1692" stroke="black" stroke-width="2" stroke-linecap="round"/>
<path d="M292.844 13.2543C293.943 12.8254 294.174 12.1537 294.822 11.2211C295.275 10.5702 295.997 10.4975 296.664 10.1737C297.242 9.89277 297.064 10.3211 297.479 10.4133C297.828 10.4909 298.217 10.3212 298.512 10.1737" stroke="black" stroke-width="2" stroke-linecap="round"/>
<path d="M300.607 15.1027C300.639 15.6071 301.541 15.2568 301.853 15.2328C302.826 15.158 303.77 15.3492 304.735 15.3492C305.75 15.3492 307.051 15.6434 307.727 14.7331C308.624 13.5256 308.136 11.9018 306.837 11.1595C305.747 10.5364 304.334 10.646 303.346 11.4059C302.877 11.7667 302.459 12.5497 302.332 13.1174C302.261 13.4389 302.065 14.2248 301.901 14.4866C301.49 15.1438 301.241 16.4491 301.223 17.225C301.199 18.3077 301.9 19.8403 302.901 20.2851C303.847 20.7056 304.877 20.8566 305.906 20.7438C306.821 20.6435 307.777 20.698 308.617 20.2782" stroke="black" stroke-width="2" stroke-linecap="round"/>
<path d="M311.944 15.4724C311.944 16.1047 312.996 15.9316 313.519 15.9927C314.254 16.0787 314.97 16.0886 315.709 16.0886C316.967 16.0886 318.194 16.0113 319.434 15.9653C320.134 15.9394 320.436 15.0589 320.447 14.4866C320.464 13.5515 320.036 13.0214 319.276 12.515C318.269 11.8436 316.504 11.2827 315.333 11.8373C314.038 12.4505 313.176 13.4298 313.176 14.9795C313.176 16.5071 313.808 17.8527 314.347 19.2308C314.491 19.6001 314.539 20.1424 314.717 20.4631C315.019 21.0067 315.706 21.068 316.257 21.1682C317.253 21.3494 321.063 22.0663 321.063 20.4015" stroke="black" stroke-width="2" stroke-linecap="round"/>
<path d="M156.885 37C156.885 39.7865 156.253 42.5553 156.253 45.3542C156.253 47.0853 156 48.7937 156 50.5212C156 51.2138 156 51.9065 156 52.5992C156 53.4824 156.545 52.8406 156.885 52.4166" stroke="black" stroke-width="2" stroke-linecap="round"/>
<path d="M164.087 43.3183C164.087 44.1213 163.754 45.0271 163.582 45.8175C163.264 47.2743 163.116 48.8109 162.978 50.2965C162.856 51.6086 162.813 53.1326 162.978 54.4385C163.031 54.8578 163.208 55.2188 163.322 55.6179C163.347 55.7058 163.369 55.4411 163.385 55.3511C163.554 54.418 163.612 53.4846 163.708 52.543" stroke="black" stroke-width="2" stroke-linecap="round"/>
<path d="M163.329 38.2637C162.947 38.4069 162.966 39.6967 163.329 39.8783C163.865 40.1462 164.251 39.1257 164.34 38.7691" stroke="black" stroke-width="2" stroke-linecap="round"/>
<path d="M168.51 43.8238C169.036 43.8238 169.664 45.1363 169.9 45.5438C170.597 46.7438 171.071 47.9803 171.55 49.2575C172.027 50.5301 172.583 51.8571 172.94 53.1047C172.963 53.1847 173.47 53.856 173.565 53.7505C174.161 53.0876 174.388 51.797 174.758 50.9986C175.168 50.1131 175.592 49.2341 175.994 48.3449C176.483 47.2613 176.775 46.1095 177.286 45.0313C177.469 44.6442 177.555 43.4447 178.114 43.4447" stroke="black" stroke-width="2" stroke-linecap="round"/>
<path d="M180.894 49.6366C180.904 49.7131 185.04 49.763 185.436 49.763C186.242 49.763 188.071 49.9968 188.476 49.1873C189.095 47.9498 188.803 46.2102 188.027 45.0804C187.249 43.9495 186.297 43.6537 184.91 43.8519C181.306 44.3667 180.03 48.5654 180.613 51.6585C180.973 53.5661 183.039 54.575 184.804 54.9931C186.235 55.332 187.632 54.6798 188.476 53.554" stroke="black" stroke-width="2" stroke-linecap="round"/>
<path d="M211.453 47.0779C211.418 46.3751 211.874 43.8073 210.741 43.8073C210.254 43.8073 209.803 43.9374 209.34 44.0799C208.471 44.3474 207.716 44.5292 206.887 44.8975C205.297 45.6042 204.484 47.3543 204.23 49.069C203.903 51.2758 203.44 55.8132 206.683 55.9356C207.951 55.9835 209.525 56.0775 210.635 55.2845C211.281 54.8234 211.8 54.2608 212.407 53.7552" stroke="black" stroke-width="2" stroke-linecap="round"/>
<path d="M219.357 44.4887C218.484 44.568 217.583 45.6319 217.252 46.3889C216.838 47.3359 216.104 48.3644 215.957 49.3945C215.884 49.9089 215.638 50.3847 215.511 50.8935C215.325 51.6359 215.366 52.5128 215.412 53.2707C215.52 55.0456 216.957 56.3178 218.743 56.4731C219.301 56.5217 219.878 56.4807 220.439 56.4807C221.054 56.4807 221.243 56.2052 221.673 55.7993C222.112 55.3846 222.636 54.9969 223.021 54.5047C223.611 53.7501 224.002 52.2323 224.096 51.3023C224.291 49.3678 224.362 46.4208 222.869 44.9278C222.583 44.6419 221.705 44.2902 221.31 44.148C220.713 43.9333 220.302 43.5554 220.038 44.2161" stroke="black" stroke-width="2" stroke-linecap="round"/>
<path d="M227.533 45.0338C227.978 45.2563 228.385 45.5292 228.896 45.3669C229.407 45.204 229.538 45.0359 229.653 45.6243C229.983 47.3245 229.986 49.026 229.986 50.7496C229.986 51.8186 230.093 52.8947 230.122 53.9672C230.129 54.2317 230.248 54.4773 230.364 54.7091C230.385 54.7505 230.618 53.5936 230.667 53.3464" stroke="black" stroke-width="2" stroke-linecap="round"/>
<path d="M230.258 47.0778C230.711 45.8208 232.04 44.4854 233.514 44.958C233.962 45.1018 235.385 45.2157 235.679 45.7151C236.143 46.5046 236.788 47.0799 237.148 47.9636C237.457 48.724 237.881 49.4039 237.746 50.2803C237.693 50.6223 237.386 50.8982 237.284 51.2342C237.182 51.5685 237.208 51.9188 237.208 52.2638C237.208 53.0386 237.617 53.6994 237.821 54.4366C237.897 54.7103 237.862 54.9874 237.958 55.2542C238.196 55.9211 238.371 54.6585 238.435 54.4366" stroke="black" stroke-width="2" stroke-linecap="round"/>
<path d="M248.383 46.8053C248.383 45.0749 247.678 43.8065 245.725 43.9512C244.504 44.0416 243.477 44.3756 243.477 45.7833C243.477 46.2479 243.749 46.6315 243.749 47.0779C243.749 47.5422 243.749 48.0066 243.749 48.4709C243.749 50.067 245.512 49.9656 246.611 50.515C248.409 51.4142 250.567 53.8682 247.981 55.3224C246.434 56.1927 244.772 55.9817 243.068 55.9356C242.185 55.9118 241.754 54.7728 242.25 54.0278" stroke="black" stroke-width="2" stroke-linecap="round"/>
<path d="M252.471 45.7151C252.771 45.7151 253.066 45.728 253.357 45.6394C253.475 45.6035 253.951 45.3254 254.076 45.3669C254.276 45.4336 254.106 48.0935 254.106 48.3649C254.106 49.4097 254.106 50.4544 254.106 51.4992C254.106 52.1748 253.756 52.98 254.076 53.619C254.364 54.1956 254.586 54.7937 255.06 55.2543C255.681 55.8583 257.352 56.0237 258.119 55.6555C259.126 55.1719 259.889 53.2198 259.966 52.1503C260.027 51.2919 260.012 50.3188 260.17 49.4626C260.281 48.8665 260.192 47.9771 260.443 47.4261C260.596 47.0899 260.742 46.4936 260.783 46.124C260.797 46.0038 260.927 45.8929 260.988 45.7833C261.155 45.4827 261.069 46.3436 261.086 46.4722C261.217 47.4567 261.601 48.2939 261.601 49.3112C261.601 51.2381 261.139 53.0458 261.192 54.9817C261.209 55.5856 261.64 56.4625 261.881 57.0258C262.244 57.8713 263.068 56.6813 263.236 56.3444" stroke="black" stroke-width="2" stroke-linecap="round"/>
<path d="M265.281 40.673C265.859 40.673 266.348 40.6005 266.916 40.4762C267.291 40.394 268.387 39.9113 268.748 40.0144C268.878 40.0516 269.328 41.9051 269.369 42.119C269.633 43.5053 269.469 44.7714 269.164 46.1239C268.671 48.3178 268.661 50.4807 268.385 52.6953C268.242 53.8349 268.02 55.6153 268.687 56.6169" stroke="black" stroke-width="2" stroke-linecap="round"/>
<path d="M275.228 42.8534C275.406 42.8756 275.228 48.037 275.228 48.7131C275.228 50.0328 275.572 51.3591 275.637 52.665C275.664 53.1953 276.046 53.6349 276.046 54.1641C276.046 54.5053 276.363 55.2093 276.591 55.4662C277.007 55.9344 277.55 55.9356 278.151 55.9356C279.042 55.9356 279.317 55.5255 279.317 54.7091" stroke="black" stroke-width="2" stroke-linecap="round"/>
<path d="M272.503 45.8514C272.503 46.6779 275.045 46.2602 275.614 46.2602C276.538 46.2602 277.44 46.3965 278.363 46.3965" stroke="black" stroke-width="2" stroke-linecap="round"/>
<path d="M283.132 48.0318C283.132 46.0274 284.429 45.17 286.198 45.17C286.542 45.17 286.888 45.437 287.145 45.647C287.456 45.9014 288.155 46.4597 288.303 46.8053C288.654 47.6251 289.035 48.3667 289.136 49.2734C289.237 50.1857 289.48 51.1753 289.643 52.0897C289.833 53.1575 289.607 54.3416 289.84 55.3905C289.954 55.904 289.745 56.8895 290.491 56.8895C291.124 56.8895 291.621 56.6082 291.172 55.9356" stroke="black" stroke-width="2" stroke-linecap="round"/>
<path d="M288.992 51.7111C288.992 51.2279 288.028 51.0408 287.629 51.0298C286.766 51.0058 285.867 51.3857 285.07 51.6808C283.851 52.1326 283.269 52.629 283.269 53.9218C283.269 57.1239 289.537 57.372 289.537 54.164" stroke="black" stroke-width="2" stroke-linecap="round"/>
<path d="M296.553 43.1383C296.493 45.9231 295.994 48.6196 295.994 51.3833C295.994 52.743 296.106 53.7688 296.623 55.0322C297.011 55.9796 297.184 57.2526 298.448 57.2526C298.885 57.2526 299.692 57.5873 300.047 57.2526C300.59 56.7397 300.812 56.4604 301.025 55.7154" stroke="black" stroke-width="2" stroke-linecap="round"/>
<path d="M293.339 46.6319C294.874 46.5138 296.418 46.3524 297.951 46.3524C298.817 46.3524 299.616 46.6319 300.466 46.6319" stroke="black" stroke-width="2" stroke-linecap="round"/>
<path d="M305.357 46.2126C305.878 46.2777 305.644 48.9226 305.637 49.4268C305.616 50.8742 305.357 52.2977 305.357 53.7589C305.357 54.5491 305.571 55.3699 305.745 56.1345C305.81 56.4156 305.835 56.7061 305.947 56.973C306.203 57.5814 306.161 56.73 306.196 56.414" stroke="black" stroke-width="2" stroke-linecap="round"/>
<path d="M305.776 41.8806C305.73 41.5572 304.952 43.2016 305.637 42.688C305.978 42.4319 305.916 42.1191 305.916 41.7408" stroke="black" stroke-width="2" stroke-linecap="round"/>
<path d="M316.118 46.9114C315.089 46.5948 314.097 46.7165 313.261 47.4005C312.702 47.8577 312.389 49.2543 312.135 49.9159C311.774 50.8546 311.856 51.9539 311.615 52.9204C311.384 53.8439 311.219 55.0686 311.785 55.8861C312.293 56.6186 313.53 56.5017 314.309 56.6314C315.154 56.7723 316.379 57.066 317.228 56.7479C319.069 56.0576 319.993 55.1365 320.364 53.0757C320.665 51.4051 320.291 49.7922 319.052 48.5883C318.551 48.1014 318.016 47.9516 317.375 47.7499C316.984 47.6266 316.118 47.5708 316.118 47.0511" stroke="black" stroke-width="2" stroke-linecap="round"/>
<path d="M323.804 47.4704C324.572 47.4704 325.307 46.9809 326.04 46.7716C326.604 46.6103 326.159 47.322 326.071 47.5791C325.86 48.191 325.9 48.8216 325.9 49.4579C325.9 51.0514 326.04 52.6388 326.04 54.2402C326.04 54.9079 326.04 55.5756 326.04 56.2432C326.04 57.1276 326.042 57.0986 326.179 56.2743" stroke="black" stroke-width="2" stroke-linecap="round"/>
<path d="M327.018 49.1473C328.206 48.2386 328.888 46.7711 330.511 47.222C331.829 47.5879 332.49 48.2861 332.747 49.5743C333.116 51.4169 333.354 53.215 333.927 55.0166C334.128 55.6489 334.145 56.2488 334.145 56.9032C334.145 57.5178 334 57.8115 334.704 57.8115" stroke="black" stroke-width="2" stroke-linecap="round"/>
<path d="M349 47.0315C349.1 47.8316 349.79 49.012 350.047 49.721C350.394 50.6773 350.765 51.6346 350.986 52.6271C351.133 53.2924 351.261 53.963 351.401 54.6307C351.572 55.4486 351.724 56.3161 352.005 57.1036C352.217 57.697 352.514 58.8799 353.061 57.6451C353.894 55.7661 354.7 53.7077 355.3 51.7426C355.632 50.652 356.123 49.6139 356.383 48.5026C356.52 47.9158 357.078 46.3409 357.285 47.943C357.688 51.0687 358.606 53.9689 359.559 56.9411C359.702 57.3857 359.631 58.4603 360.011 58.7642C360.282 58.9814 362.203 54.1184 362.402 53.6379C363.102 51.9527 364.758 49.8537 364.758 48.0062" stroke="black" stroke-width="2" stroke-linecap="round"/>
<path d="M368.819 47.6813C368.819 50.0747 368.516 52.4891 368.783 54.8654C368.89 55.8125 368.933 57.0843 369.234 57.9881C369.613 59.123 369.639 58.6848 369.794 57.7534" stroke="black" stroke-width="2" stroke-linecap="round"/>
<path d="M369.307 42.1579C369.307 41.9857 368.726 43.5897 368.657 43.5027C368.468 43.267 368.391 42.778 368.657 42.6453" stroke="black" stroke-width="2" stroke-linecap="round"/>
<path d="M376.617 44.4323C376.617 45.2814 376.029 46.1457 375.976 47.0405C375.888 48.5481 375.967 50.0787 375.967 51.5892C375.967 53.0886 376.713 54.4067 376.779 55.8401C376.831 56.9565 377.198 57.7534 378.341 57.7534C378.757 57.7534 380.379 57.9253 380.642 57.5187C381.2 56.6562 380.61 55.5836 380.191 54.8292" stroke="black" stroke-width="2" stroke-linecap="round"/>
<path d="M372.718 48.3311C371.117 48.3311 375.909 48.0062 377.51 48.0062C378.264 48.0062 379.561 48.2634 380.191 47.8438" stroke="black" stroke-width="2" stroke-linecap="round"/>
<path d="M381.166 42.8077C381.935 42.8077 382.792 42.8915 383.512 42.564C384.002 42.3412 384.463 42.1201 384.983 42.0045C385.611 41.8651 385.389 45.0248 385.389 45.4431C385.389 46.8654 385.695 48.2438 386.003 49.6307C386.402 51.4262 386.039 53.7085 386.039 55.5603C386.039 56.4044 385.905 57.218 385.877 58.0422C385.835 59.2509 385.877 58.9544 385.877 57.9158" stroke="black" stroke-width="2" stroke-linecap="round"/>
<path d="M386.527 49.4683C386.263 49.5013 386.977 49.2711 387.339 49.0171C387.81 48.6863 388.559 48.4936 389.135 48.4936C389.888 48.4936 392.212 49.0723 392.212 50.0369C392.212 51.5388 392.05 53.0075 392.05 54.5044C392.05 55.4399 392.028 56.3365 392.212 57.257C392.264 57.5132 392.679 58.9329 392.862 58.5657" stroke="black" stroke-width="2" stroke-linecap="round"/>
<path d="M408.164 48.7364C408.406 46.802 408.164 52.6353 408.164 54.5847C408.164 55.7282 408.002 56.8482 408.002 57.9962C408.002 58.3278 407.975 58.6653 408.128 58.9709C408.219 59.1532 408.727 57.6081 408.814 57.3464" stroke="black" stroke-width="2" stroke-linecap="round"/>
<path d="M410.763 48.5739C410.345 49.4365 410.617 49.4048 411.287 48.8988C411.734 48.5608 412.156 48.3864 412.677 48.2129C413.366 47.983 413.569 48.1662 414.003 48.7454C415.078 50.1778 414.987 51.9473 414.987 53.6822C414.987 55.4189 415.15 60.6264 415.15 58.8897C415.15 56.5564 415.575 54.4745 416.612 52.4006C417.029 51.5655 417.624 48.8988 418.814 48.8988C420.391 48.8988 421.374 49.6169 421.973 51.0468C422.668 52.7088 422.651 54.1892 422.794 55.9746C422.875 56.9812 423.139 57.9872 423.263 58.9799C423.309 59.3471 423.272 59.7379 423.272 60.1081C423.272 60.613 423.272 59.1743 423.272 58.9709" stroke="black" stroke-width="2" stroke-linecap="round"/>
<path d="M427.821 54.0974C428.578 54.0974 429.274 53.7725 430.041 53.7725C431.034 53.7725 432.027 53.7725 433.02 53.7725C434.217 53.7725 435.292 53.7423 436.034 52.7978C436.536 52.1584 436.922 51.6128 436.738 50.6949C436.614 50.0769 435.874 49.5515 435.33 49.3501C434.489 49.0386 433.705 48.574 432.776 48.574C431.782 48.574 431.238 49.0945 430.42 49.5487C429.609 49.9992 428.277 51.818 428.137 52.7978C428.099 53.0608 427.836 53.1854 427.821 53.4476C427.801 53.8002 427.821 54.1596 427.821 54.5125C427.821 55.375 427.881 56.0257 428.39 56.7598C429.126 57.8235 430.875 58.971 432.207 58.971C432.561 58.971 432.799 58.8299 433.101 58.6461C433.441 58.4391 433.956 58.4499 434.238 58.2309C434.696 57.875 434.923 57.8093 435.131 57.184" stroke="black" stroke-width="2" stroke-linecap="round"/>
<path d="M441.954 45C441.954 46.7578 441.458 48.6674 441.991 50.3971C442.212 51.1172 441.95 51.8888 442.153 52.5992C442.24 52.9046 442.313 54.5509 442.442 54.4223" stroke="black" stroke-width="2" stroke-linecap="round"/>
<path d="M441.63 59.7832C441.658 59.9544 442.257 58.425 442.279 59.0071C442.314 59.912 441.781 60.1911 441.63 59.1334" stroke="black" stroke-width="2" stroke-linecap="round"/>
</svg>
