<svg width="117" height="33" viewBox="0 0 117 33" fill="none" xmlns="http://www.w3.org/2000/svg">
<rect width="117" height="33" rx="5" fill="#F6F6F6"/>
<path d="M25.035 14.89C25.405 14.72 25.78 14.64 26.16 14.65L25.395 18.94C25.335 19.27 25.29 19.57 25.26 19.84C25.24 20.11 25.24 20.345 25.26 20.545C25.29 20.735 25.345 20.885 25.425 20.995C25.515 21.095 25.645 21.145 25.815 21.145C26.145 21.145 26.485 21.055 26.835 20.875C27.185 20.685 27.505 20.415 27.795 20.065C28.095 19.715 28.34 19.29 28.53 18.79C28.72 18.29 28.815 17.73 28.815 17.11C28.815 16.35 28.67 15.66 28.38 15.04C28.09 14.42 27.69 13.895 27.18 13.465C26.68 13.025 26.09 12.69 25.41 12.46C24.74 12.22 24.02 12.1 23.25 12.1C22.33 12.1 21.5 12.265 20.76 12.595C20.03 12.915 19.405 13.36 18.885 13.93C18.365 14.49 17.965 15.155 17.685 15.925C17.405 16.685 17.265 17.5 17.265 18.37C17.265 19.26 17.41 20.05 17.7 20.74C17.99 21.42 18.395 21.995 18.915 22.465C19.445 22.945 20.07 23.305 20.79 23.545C21.52 23.795 22.32 23.92 23.19 23.92C23.48 23.92 23.81 23.885 24.18 23.815C24.55 23.745 24.885 23.64 25.185 23.5L25.425 24.16C25.075 24.36 24.69 24.5 24.27 24.58C23.85 24.66 23.385 24.7 22.875 24.7C22.015 24.7 21.195 24.57 20.415 24.31C19.635 24.05 18.945 23.66 18.345 23.14C17.755 22.62 17.285 21.97 16.935 21.19C16.585 20.41 16.41 19.5 16.41 18.46C16.41 17.37 16.59 16.385 16.95 15.505C17.31 14.625 17.8 13.875 18.42 13.255C19.05 12.635 19.785 12.16 20.625 11.83C21.465 11.49 22.365 11.32 23.325 11.32C24.225 11.32 25.06 11.455 25.83 11.725C26.61 11.985 27.285 12.365 27.855 12.865C28.425 13.355 28.87 13.96 29.19 14.68C29.51 15.39 29.67 16.2 29.67 17.11C29.67 17.76 29.555 18.375 29.325 18.955C29.105 19.535 28.8 20.045 28.41 20.485C28.03 20.925 27.59 21.275 27.09 21.535C26.59 21.795 26.065 21.925 25.515 21.925C25.215 21.925 24.96 21.88 24.75 21.79C24.54 21.69 24.38 21.535 24.27 21.325C24.16 21.105 24.1 20.825 24.09 20.485C24.09 20.145 24.145 19.735 24.255 19.255H24.195C24.085 19.575 23.93 19.895 23.73 20.215C23.54 20.525 23.32 20.81 23.07 21.07C22.82 21.32 22.55 21.525 22.26 21.685C21.98 21.845 21.695 21.925 21.405 21.925C20.805 21.925 20.34 21.72 20.01 21.31C19.69 20.89 19.53 20.335 19.53 19.645C19.53 19.005 19.635 18.38 19.845 17.77C20.065 17.16 20.355 16.615 20.715 16.135C21.085 15.655 21.51 15.27 21.99 14.98C22.47 14.69 22.975 14.545 23.505 14.545C23.865 14.545 24.15 14.575 24.36 14.635C24.57 14.695 24.795 14.78 25.035 14.89ZM24.78 15.61C24.62 15.51 24.455 15.435 24.285 15.385C24.125 15.335 23.915 15.31 23.655 15.31C23.275 15.31 22.915 15.445 22.575 15.715C22.235 15.975 21.94 16.31 21.69 16.72C21.44 17.13 21.24 17.58 21.09 18.07C20.95 18.55 20.88 19.015 20.88 19.465C20.88 19.945 20.955 20.32 21.105 20.59C21.255 20.86 21.54 20.995 21.96 20.995C22.15 20.995 22.355 20.905 22.575 20.725C22.795 20.535 23.01 20.29 23.22 19.99C23.44 19.69 23.65 19.355 23.85 18.985C24.06 18.605 24.245 18.225 24.405 17.845L24.78 15.61ZM37.1168 20.035C37.1168 20.255 37.1218 20.445 37.1318 20.605C37.1418 20.765 37.1518 20.935 37.1618 21.115L38.1968 21.265V21.58C37.9468 21.71 37.6668 21.825 37.3568 21.925C37.0568 22.025 36.7668 22.1 36.4868 22.15H36.1118C36.0118 21.92 35.9518 21.67 35.9318 21.4C35.9118 21.12 35.8968 20.815 35.8868 20.485H35.8118C35.7718 20.685 35.6918 20.89 35.5718 21.1C35.4618 21.3 35.3118 21.48 35.1218 21.64C34.9418 21.8 34.7268 21.93 34.4768 22.03C34.2268 22.13 33.9418 22.18 33.6218 22.18C33.0118 22.18 32.5118 21.995 32.1218 21.625C31.7418 21.255 31.5518 20.77 31.5518 20.17C31.5518 19.71 31.6418 19.335 31.8218 19.045C32.0118 18.745 32.2868 18.51 32.6468 18.34C33.0068 18.17 33.4518 18.05 33.9818 17.98C34.5118 17.9 35.1268 17.84 35.8268 17.8C35.8668 17.37 35.8768 16.985 35.8568 16.645C35.8468 16.295 35.7918 16 35.6918 15.76C35.6018 15.51 35.4618 15.32 35.2718 15.19C35.0918 15.05 34.8518 14.98 34.5518 14.98C34.4118 14.98 34.2518 14.99 34.0718 15.01C33.9018 15.02 33.7318 15.06 33.5618 15.13L32.8568 16.93H32.4668C32.3668 16.63 32.2768 16.32 32.1968 16C32.1268 15.68 32.0818 15.365 32.0618 15.055C32.4418 14.825 32.8618 14.645 33.3218 14.515C33.7918 14.385 34.3118 14.32 34.8818 14.32C35.3918 14.32 35.7968 14.395 36.0968 14.545C36.4068 14.685 36.6418 14.87 36.8018 15.1C36.9618 15.33 37.0668 15.585 37.1168 15.865C37.1668 16.145 37.1918 16.425 37.1918 16.705C37.1918 17.305 37.1768 17.885 37.1468 18.445C37.1268 18.995 37.1168 19.525 37.1168 20.035ZM34.2218 21.25C34.4718 21.25 34.6918 21.2 34.8818 21.1C35.0718 21 35.2318 20.88 35.3618 20.74C35.4918 20.6 35.5968 20.46 35.6768 20.32C35.7568 20.17 35.8118 20.045 35.8418 19.945V18.37C35.2618 18.37 34.7868 18.4 34.4168 18.46C34.0468 18.52 33.7568 18.615 33.5468 18.745C33.3368 18.875 33.1918 19.04 33.1118 19.24C33.0318 19.43 32.9918 19.65 32.9918 19.9C32.9918 20.33 33.1018 20.665 33.3218 20.905C33.5418 21.135 33.8418 21.25 34.2218 21.25ZM42.2 15.625C42.09 15.685 41.95 15.81 41.78 16C41.62 16.18 41.475 16.45 41.345 16.81V21.265C41.545 21.285 41.745 21.325 41.945 21.385C42.145 21.435 42.345 21.515 42.545 21.625V22H39.005V21.625C39.185 21.525 39.355 21.45 39.515 21.4C39.675 21.35 39.835 21.305 39.995 21.265V15.37L39.005 15.25V14.86C39.325 14.72 39.655 14.61 39.995 14.53C40.335 14.44 40.66 14.37 40.97 14.32H41.345V15.91H41.405C41.495 15.71 41.62 15.51 41.78 15.31C41.95 15.11 42.14 14.93 42.35 14.77C42.57 14.61 42.805 14.49 43.055 14.41C43.315 14.32 43.58 14.29 43.85 14.32C43.92 14.45 43.98 14.595 44.03 14.755C44.09 14.905 44.145 15.065 44.195 15.235V15.625H42.2ZM50.9869 20.95C50.9069 21.12 50.7819 21.28 50.6119 21.43C50.4419 21.58 50.2469 21.71 50.0269 21.82C49.8069 21.93 49.5669 22.015 49.3069 22.075C49.0469 22.145 48.7819 22.18 48.5119 22.18C47.9219 22.18 47.4019 22.09 46.9519 21.91C46.5019 21.72 46.1269 21.455 45.8269 21.115C45.5269 20.765 45.2969 20.35 45.1369 19.87C44.9869 19.39 44.9119 18.85 44.9119 18.25C44.9119 16.97 45.2069 15.995 45.7969 15.325C46.3869 14.655 47.2219 14.32 48.3019 14.32C48.6519 14.32 48.9969 14.37 49.3369 14.47C49.6769 14.56 49.9769 14.715 50.2369 14.935C50.5069 15.155 50.7219 15.45 50.8819 15.82C51.0519 16.18 51.1369 16.63 51.1369 17.17C51.1369 17.34 51.1269 17.515 51.1069 17.695C51.0969 17.865 51.0719 18.05 51.0319 18.25H46.3519C46.3519 18.67 46.4019 19.065 46.5019 19.435C46.6119 19.795 46.7719 20.11 46.9819 20.38C47.1919 20.65 47.4569 20.865 47.7769 21.025C48.0969 21.175 48.4719 21.25 48.9019 21.25C49.2519 21.25 49.6069 21.2 49.9669 21.1C50.3269 21 50.5969 20.87 50.7769 20.71L50.9869 20.95ZM48.2419 14.98C47.6719 14.98 47.2369 15.175 46.9369 15.565C46.6369 15.945 46.4569 16.62 46.3969 17.59H49.6969C49.7069 17.5 49.7119 17.415 49.7119 17.335C49.7219 17.245 49.7269 17.16 49.7269 17.08C49.7269 16.44 49.6069 15.93 49.3669 15.55C49.1269 15.17 48.7519 14.98 48.2419 14.98ZM60.4958 22H57.2708V21.625C57.5408 21.485 57.8358 21.365 58.1558 21.265V17.71C58.1558 16.95 58.0458 16.35 57.8258 15.91C57.6058 15.47 57.2058 15.25 56.6258 15.25C56.3758 15.25 56.1408 15.295 55.9208 15.385C55.7108 15.475 55.5208 15.6 55.3508 15.76C55.1908 15.91 55.0508 16.085 54.9308 16.285C54.8108 16.475 54.7158 16.675 54.6458 16.885V21.265C54.9558 21.325 55.2558 21.445 55.5458 21.625V22H52.3058V21.625C52.5558 21.495 52.8858 21.375 53.2958 21.265V15.37L52.3058 15.25V14.86C52.5658 14.75 52.8658 14.65 53.2058 14.56C53.5458 14.47 53.9008 14.39 54.2708 14.32H54.6458V16H54.6608C54.8708 15.54 55.1708 15.145 55.5608 14.815C55.9608 14.485 56.4408 14.32 57.0008 14.32C57.4008 14.32 57.7558 14.37 58.0658 14.47C58.3858 14.56 58.6508 14.725 58.8608 14.965C59.0708 15.205 59.2308 15.53 59.3408 15.94C59.4508 16.34 59.5058 16.85 59.5058 17.47V21.265C59.9058 21.335 60.2358 21.455 60.4958 21.625V22ZM66.8971 20.035C66.8971 20.255 66.9021 20.445 66.9121 20.605C66.9221 20.765 66.9321 20.935 66.9421 21.115L67.9771 21.265V21.58C67.7271 21.71 67.4471 21.825 67.1371 21.925C66.8371 22.025 66.5471 22.1 66.2671 22.15H65.8921C65.7921 21.92 65.7321 21.67 65.7121 21.4C65.6921 21.12 65.6771 20.815 65.6671 20.485H65.5921C65.5521 20.685 65.4721 20.89 65.3521 21.1C65.2421 21.3 65.0921 21.48 64.9021 21.64C64.7221 21.8 64.5071 21.93 64.2571 22.03C64.0071 22.13 63.7221 22.18 63.4021 22.18C62.7921 22.18 62.2921 21.995 61.9021 21.625C61.5221 21.255 61.3321 20.77 61.3321 20.17C61.3321 19.71 61.4221 19.335 61.6021 19.045C61.7921 18.745 62.0671 18.51 62.4271 18.34C62.7871 18.17 63.2321 18.05 63.7621 17.98C64.2921 17.9 64.9071 17.84 65.6071 17.8C65.6471 17.37 65.6571 16.985 65.6371 16.645C65.6271 16.295 65.5721 16 65.4721 15.76C65.3821 15.51 65.2421 15.32 65.0521 15.19C64.8721 15.05 64.6321 14.98 64.3321 14.98C64.1921 14.98 64.0321 14.99 63.8521 15.01C63.6821 15.02 63.5121 15.06 63.3421 15.13L62.6371 16.93H62.2471C62.1471 16.63 62.0571 16.32 61.9771 16C61.9071 15.68 61.8621 15.365 61.8421 15.055C62.2221 14.825 62.6421 14.645 63.1021 14.515C63.5721 14.385 64.0921 14.32 64.6621 14.32C65.1721 14.32 65.5771 14.395 65.8771 14.545C66.1871 14.685 66.4221 14.87 66.5821 15.1C66.7421 15.33 66.8471 15.585 66.8971 15.865C66.9471 16.145 66.9721 16.425 66.9721 16.705C66.9721 17.305 66.9571 17.885 66.9271 18.445C66.9071 18.995 66.8971 19.525 66.8971 20.035ZM64.0021 21.25C64.2521 21.25 64.4721 21.2 64.6621 21.1C64.8521 21 65.0121 20.88 65.1421 20.74C65.2721 20.6 65.3771 20.46 65.4571 20.32C65.5371 20.17 65.5921 20.045 65.6221 19.945V18.37C65.0421 18.37 64.5671 18.4 64.1971 18.46C63.8271 18.52 63.5371 18.615 63.3271 18.745C63.1171 18.875 62.9721 19.04 62.8921 19.24C62.8121 19.43 62.7721 19.65 62.7721 19.9C62.7721 20.33 62.8821 20.665 63.1021 20.905C63.3221 21.135 63.6221 21.25 64.0021 21.25ZM71.8903 22.18L68.9653 15.25C68.6753 15.15 68.4103 15.03 68.1703 14.89V14.5H71.3053V14.875C71.1753 14.945 71.0403 15.015 70.9003 15.085C70.7703 15.145 70.6203 15.2 70.4503 15.25L72.1903 19.765L72.4903 20.695H72.5203L72.7453 19.75L74.3503 15.25C74.1903 15.21 74.0403 15.16 73.9003 15.1C73.7703 15.04 73.6453 14.97 73.5253 14.89V14.5H76.0753V14.89C75.9753 14.96 75.8503 15.025 75.7003 15.085C75.5603 15.145 75.4003 15.2 75.2203 15.25L72.5653 22L71.8903 22.18ZM79.8679 22H76.5379V21.625C76.6879 21.545 76.8429 21.48 77.0029 21.43C77.1629 21.37 77.3379 21.315 77.5279 21.265V15.37L76.5379 15.25V14.86C76.8279 14.74 77.1429 14.635 77.4829 14.545C77.8229 14.455 78.1629 14.38 78.5029 14.32H78.8779V21.265C79.0779 21.315 79.2579 21.37 79.4179 21.43C79.5779 21.48 79.7279 21.545 79.8679 21.625V22ZM77.2429 11.95C77.2429 11.68 77.3279 11.465 77.4979 11.305C77.6779 11.145 77.9129 11.065 78.2029 11.065C78.4929 11.065 78.7229 11.145 78.8929 11.305C79.0629 11.465 79.1479 11.68 79.1479 11.95C79.1479 12.22 79.0629 12.435 78.8929 12.595C78.7229 12.745 78.4929 12.82 78.2029 12.82C77.9129 12.82 77.6779 12.745 77.4979 12.595C77.3279 12.435 77.2429 12.22 77.2429 11.95ZM80.6596 14.86C81.0396 14.62 81.4396 14.45 81.8596 14.35V13.075C81.9896 12.965 82.1396 12.87 82.3096 12.79C82.4896 12.7 82.6646 12.615 82.8346 12.535H83.2096V14.5H85.4596V15.25H83.2096V19.6C83.2096 20.2 83.3046 20.625 83.4946 20.875C83.6846 21.125 83.9696 21.25 84.3496 21.25C84.5296 21.25 84.7546 21.24 85.0246 21.22C85.2946 21.19 85.5246 21.14 85.7146 21.07L85.8196 21.295C85.7396 21.385 85.6246 21.48 85.4746 21.58C85.3346 21.68 85.1696 21.775 84.9796 21.865C84.7996 21.955 84.5996 22.03 84.3796 22.09C84.1596 22.15 83.9346 22.18 83.7046 22.18C83.1046 22.18 82.6446 22.01 82.3246 21.67C82.0146 21.33 81.8596 20.78 81.8596 20.02V15.25H80.6596V14.86ZM92.406 20.95C92.226 21.3 91.931 21.595 91.521 21.835C91.121 22.065 90.651 22.18 90.111 22.18C89.521 22.18 89.006 22.09 88.566 21.91C88.136 21.72 87.776 21.455 87.486 21.115C87.196 20.765 86.976 20.35 86.826 19.87C86.686 19.38 86.616 18.84 86.616 18.25C86.616 16.98 86.926 16.01 87.546 15.34C88.166 14.66 89.011 14.32 90.081 14.32C90.571 14.32 91.006 14.365 91.386 14.455C91.776 14.535 92.106 14.645 92.376 14.785C92.346 15.115 92.291 15.485 92.211 15.895C92.131 16.305 92.031 16.645 91.911 16.915H91.506L90.876 15.13C90.806 15.08 90.726 15.045 90.636 15.025C90.546 14.995 90.396 14.98 90.186 14.98C89.506 14.98 88.981 15.23 88.611 15.73C88.241 16.22 88.056 17.055 88.056 18.235C88.056 18.615 88.106 18.985 88.206 19.345C88.316 19.705 88.476 20.03 88.686 20.32C88.906 20.6 89.176 20.825 89.496 20.995C89.826 21.165 90.206 21.25 90.636 21.25C90.986 21.25 91.291 21.2 91.551 21.1C91.811 21 92.031 20.88 92.211 20.74L92.406 20.95ZM101.538 22H98.2983V21.625C98.5383 21.495 98.8383 21.375 99.1983 21.265V17.755C99.1983 16.975 99.0883 16.365 98.8683 15.925C98.6483 15.475 98.2483 15.25 97.6683 15.25C97.4083 15.25 97.1733 15.3 96.9633 15.4C96.7533 15.49 96.5633 15.61 96.3933 15.76C96.2233 15.91 96.0783 16.085 95.9583 16.285C95.8383 16.475 95.7483 16.675 95.6883 16.885V21.265C95.8483 21.305 95.9983 21.35 96.1383 21.4C96.2883 21.45 96.4333 21.525 96.5733 21.625V22H93.3483V21.625C93.6583 21.465 93.9883 21.345 94.3383 21.265V11.77L93.1983 11.65V11.26C93.4883 11.14 93.8233 11.035 94.2033 10.945C94.5933 10.855 94.9633 10.78 95.3133 10.72H95.6883V16.015H95.7033C95.9133 15.545 96.2133 15.145 96.6033 14.815C97.0033 14.485 97.4833 14.32 98.0433 14.32C98.4433 14.32 98.7983 14.37 99.1083 14.47C99.4283 14.56 99.6933 14.725 99.9033 14.965C100.113 15.205 100.273 15.53 100.383 15.94C100.493 16.34 100.548 16.85 100.548 17.47V21.265C100.718 21.305 100.888 21.35 101.058 21.4C101.228 21.45 101.388 21.525 101.538 21.625V22Z" fill="black"/>
</svg>
