<svg width="731" height="183" viewBox="0 0 731 183" fill="none" xmlns="http://www.w3.org/2000/svg">
<path d="M93.0989 72.1886C93.0989 83.6276 91.696 95.2563 92.7239 106.692C93.0676 110.516 93.2287 114.187 94.0633 117.943C94.4033 119.473 95.0276 119.912 95.0276 121.613C95.0276 125.176 95.7339 129.534 94.7866 132.944C94.0018 135.769 93.9727 138.741 93.4739 141.623C93.1708 143.375 93.5917 145.947 92.6167 147.41" stroke="#6D9AF5" stroke-width="17" stroke-linecap="round"/>
<path d="M95.0275 104.013C92.4093 104.013 89.8573 99.6542 88.3841 97.7445C85.7771 94.365 83.2086 91.0635 79.6512 88.3954C75.7598 85.4769 73.1884 79.6781 68.4001 78.082C63.4912 76.4457 58.7829 76.1827 53.6667 75.6711C49.9614 75.3005 45.5128 74.8646 41.9603 75.805C36.5216 77.2446 31.3424 78.386 26.3428 80.9751C21.3309 83.5706 15.3304 87.3678 12.1451 92.1458C9.58771 95.9818 9.95727 101.327 9.65379 105.727C9.26136 111.418 8.73705 117.144 9.78773 122.818C11.8428 133.915 23.2082 141.065 32.7719 144.784C36.8237 146.36 40.8527 148.153 45.3088 148.347C51.2502 148.606 54.9657 146.999 60.3101 144.892C63.6415 143.578 66.9178 142.246 70.2753 140.981C76.2932 138.711 79.5659 135.297 84.1248 131.042C87.023 128.337 92.5388 125.058 93.581 120.889" stroke="#6D9AF5" stroke-width="17" stroke-linecap="round"/>
<path d="M126.852 36.5068C128.575 36.7222 128.781 56.2925 128.781 58.3124C128.781 64.9813 129.152 71.3882 129.638 78.0284C129.922 81.9108 130.262 85.4339 129.477 89.1723C127.777 97.2713 128.781 106.356 128.781 114.621C128.781 117.068 128.781 119.514 128.781 121.961C128.781 123.037 128.251 126.739 129.745 124.747" stroke="#6DF48B" stroke-width="17" stroke-linecap="round"/>
<path d="M139.389 57.723C141.794 55.1669 143.444 52.6973 146.621 50.9724C151.399 48.3786 154.89 43.8661 160.149 42.0252C164.523 40.4945 168.505 40.7257 173.115 41.3019C174.764 41.5081 177.626 42.6787 178.928 41.8109" stroke="#6DF48B" stroke-width="17" stroke-linecap="round"/>
<path d="M165.427 110.764C165.856 111.621 168.468 111.435 169.204 111.54C173.007 112.084 176.736 112.812 180.562 113.201C184.545 113.606 188.856 115.527 192.911 115.076C197.845 114.528 202.78 114.067 207.752 113.764C210.795 113.578 214.625 114.011 217.503 112.799C218.606 112.335 220.397 112.692 221.575 112.692C222.32 112.692 223.33 111.866 224.012 111.487C225.069 110.9 226.44 110.962 227.522 110.281C229.146 109.258 229.049 105.793 229.075 104.12C229.184 97.1856 229.755 91.9687 226.209 85.9845C223.592 81.5687 216.765 79.4214 211.824 79.4214C206.207 79.4214 201.284 79.064 195.617 79.9036C193.266 80.2518 190.939 80.6318 188.572 80.8947C186.538 81.1207 184.749 82.3985 182.759 82.7967C176.743 83.9998 172.082 90.408 169.874 95.7086C167.424 101.587 168.32 109.11 168.32 115.291C168.32 121.852 167.677 128.346 170.356 134.498C173.17 140.96 179.193 144.071 185.223 146.927C191.025 149.676 196.167 150.785 202.555 150.785C204.415 150.785 206.102 149.627 208.047 149.338C210.083 149.037 211.899 147.878 213.886 147.436C219.039 146.291 225.296 144.337 229.558 141.141" stroke="#F4DD6D" stroke-width="17" stroke-linecap="round"/>
<path d="M261.382 104.013C261.382 116.93 262.346 130.139 262.346 143.177C262.346 146.677 262.346 150.178 262.346 153.678C262.346 156.297 261.497 158.698 261.382 161.286C261.32 162.683 260.558 172.413 261.382 172.001" stroke="#F4906E" stroke-width="17" stroke-linecap="round"/>
<path d="M272.954 121.372C277.214 118.486 280.92 114.997 284.714 111.54C286.736 109.698 288.084 108.353 290.795 108.353C292.682 108.353 294.513 108.811 296.421 108.835C298.356 108.859 301.976 108.597 303.814 109.424C306.001 110.408 308.835 111.086 310.806 112.451C314.347 114.902 315.685 117.787 317.503 121.827C318.779 124.662 319.262 128.201 319.834 131.23C320.884 136.798 322.174 142.02 322.861 147.651C323.496 152.864 324.433 159.126 322.727 164.179C321.71 167.19 319.726 170.701 319.726 173.93" stroke="#F4906E" stroke-width="17" stroke-linecap="round"/>
<path d="M410.378 63.5093C410.378 73.8415 410.033 84.4081 411.583 94.6371C412.184 98.6066 412.392 102.639 413.164 106.585C413.615 108.89 414.235 111.304 414.235 113.657C414.235 119.352 413.753 124.891 413.753 130.533" stroke="#F697F1" stroke-width="17" stroke-linecap="round"/>
<path d="M403.266 80.1749C401.437 79.7176 400.987 75.1873 399.052 74.0988C397.244 73.0816 395.204 72.5763 393.419 71.5845C387.924 68.5319 381.253 67.1083 375.283 65.1824C369.839 63.4261 362.425 67.1059 358.242 70.1179C352.691 74.1143 349.052 79.6255 345.764 85.5294C343.588 89.4365 340.828 93.387 340.828 98.0309C340.828 104.314 341.282 109.487 343.948 115.305C346.881 121.705 348.839 129.55 356.426 131.718C361.765 133.243 366.728 133.622 372.233 132.975C374.588 132.698 376.866 131.727 379.101 130.973C381.715 130.09 384.694 129.63 387.133 128.365C390.621 126.556 393.467 123.498 396.235 120.729C398.889 118.075 400.537 115.135 401.962 111.673C402.288 110.882 402.847 109.94 402.847 109.089" stroke="#F697F1" stroke-width="17" stroke-linecap="round"/>
<path d="M433.857 35.7562C433.857 37.0778 433.841 38.2223 434.276 39.481C435.877 44.1169 437.645 48.8566 439.7 53.3095C441.581 57.3855 443.138 61.7917 444.146 66.1602C445.177 70.6256 447.293 74.8362 448.942 79.1041C451.268 85.1251 451.309 91.4642 452.946 97.5654C453.817 100.81 456.066 104.695 456.066 108.041C456.066 110.328 459.413 103.926 459.93 103.222C462.166 100.182 464.244 96.8749 466.17 93.631C469.583 87.8801 473.26 82.256 475.994 76.1475C481.41 64.0478 486.855 50.9634 494.199 39.9466" stroke="#B491F9" stroke-width="17" stroke-linecap="round"/>
<path d="M521.437 60.4798C522.097 60.5623 522.552 62.4252 522.694 62.9941" stroke="#91DBF8" stroke-width="17" stroke-linecap="round"/>
<path d="M520.599 94.8416C520.599 102.756 518.504 110.427 518.504 118.308C518.504 122.129 518.085 125.923 518.085 129.762C518.085 133.206 518.461 136.888 517.875 140.285C516.726 146.951 518.504 153.781 518.504 160.445C518.504 162.429 518.707 164.146 518.946 166.056C519.302 168.904 520.337 166.83 521.018 165.241" stroke="#91DBF8" stroke-width="17" stroke-linecap="round"/>
<path d="M559.151 8.93726C559.151 16.3512 557.894 24.0685 557.894 31.6355C557.894 39.1169 558.732 46.5421 558.732 54.0545C558.732 63.0096 558.732 71.9648 558.732 80.9199C558.732 86.1425 558.732 91.365 558.732 96.5876C558.732 100.77 559.57 104.897 559.57 109.043C559.57 110.305 560.548 118.727 561.246 118.727" stroke="#7FEB61" stroke-width="17" stroke-linecap="round"/>
<path d="M537.361 38.2704C548.202 38.2704 559.043 38.2704 569.883 38.2704C576.611 38.2704 583.366 39.1085 590.161 39.1085" stroke="#7FEB61" stroke-width="17" stroke-linecap="round"/>
<path d="M637.094 97.7749C636.872 95.999 632.527 94.8866 631.227 94.3294C628.806 93.292 626.186 94.7058 623.894 95.4701C618.539 97.2549 613.134 97.4719 607.854 99.3579C606.076 99.9926 603.583 101.165 602.22 102.477C600.658 103.981 600.085 106.195 598.96 108.041C597.718 110.083 595.608 113.611 595.608 116.003C595.608 118.14 594.424 119.95 594.351 121.986C594.161 127.307 594.535 132.4 595.189 137.631C596.164 145.43 597.022 156.448 604.501 161.051C605.668 161.768 607.199 161.443 608.505 161.47C611.022 161.522 613.506 161.889 616.048 161.889C620.588 161.889 625.081 162.308 629.597 162.308C632.453 162.308 640.446 162.941 640.446 158.117" stroke="#F492E7" stroke-width="17" stroke-linecap="round"/>
<path d="M663.074 50.8418C663.9 50.945 663.494 54.172 663.494 54.7063C663.494 61.5791 663.013 68.4907 664.751 75.193C666.169 80.6646 667.632 86.3721 668.708 91.9082C669.819 97.62 669.36 103.634 669.36 109.415C669.36 115.219 670.244 121.808 668.941 127.481C667.909 131.971 668.435 136.682 667.474 141.1C666.989 143.334 667.265 145.779 667.265 148.06C667.265 148.783 667.117 152.054 668.103 150.575" stroke="#EC605F" stroke-width="17" stroke-linecap="round"/>
<path d="M677.741 104.899C677.741 95.43 687.099 89.8828 694.736 86.8797C701.347 84.2797 710.965 83.4256 716.27 89.394C717.205 90.4457 716.94 91.631 717.574 92.7929C718.397 94.3027 719.053 96.3372 719.413 98.031C720.377 102.577 719.962 108.851 719.436 113.373C718.785 118.971 722.16 123.583 722.16 128.97C722.16 132.696 722.687 146.807 722.16 150.5" stroke="#EC605F" stroke-width="17" stroke-linecap="round"/>
</svg>
